<svg width="53" height="53" viewBox="0 0 53 53" fill="none" xmlns="http://www.w3.org/2000/svg">
<rect x="1" y="1" width="51" height="51" rx="9.5" fill="white"/>
<rect x="1" y="1" width="51" height="51" rx="9.5" stroke="#F1F1F1"/>
<path d="M35.8334 22.5C35.8334 24.4333 35.26 26.2066 34.2734 27.6866C32.8334 29.82 30.5534 31.3266 27.9 31.7133C27.4467 31.7933 26.98 31.8333 26.5 31.8333C26.02 31.8333 25.5534 31.7933 25.1 31.7133C22.4467 31.3266 20.1667 29.82 18.7267 27.6866C17.74 26.2066 17.1667 24.4333 17.1667 22.5C17.1667 17.34 21.34 13.1666 26.5 13.1666C31.66 13.1666 35.8334 17.34 35.8334 22.5Z" stroke="#003366" stroke-width="2.2" stroke-linecap="round" stroke-linejoin="round"/>
<path d="M38.8333 35.1266L36.6333 35.6466C36.14 35.7666 35.7533 36.14 35.6467 36.6333L35.18 38.5933C34.9267 39.66 33.5667 39.98 32.86 39.14L26.5 31.8333L20.14 39.1533C19.4333 39.9933 18.0733 39.6733 17.82 38.6066L17.3533 36.6466C17.2333 36.1533 16.8467 35.7666 16.3667 35.66L14.1667 35.14C13.1533 34.9 12.7933 33.6333 13.5267 32.8999L18.7267 27.7C20.1667 29.8333 22.4467 31.34 25.1 31.7266C25.5533 31.8066 26.02 31.8466 26.5 31.8466C26.98 31.8466 27.4467 31.8066 27.9 31.7266C30.5533 31.34 32.8333 29.8333 34.2733 27.7L39.4733 32.8999C40.2067 33.6199 39.8467 34.8866 38.8333 35.1266Z" stroke="#003366" stroke-width="2.2" stroke-linecap="round" stroke-linejoin="round"/>
<path d="M27.2733 18.4734L28.06 20.0467C28.1667 20.26 28.4466 20.4734 28.7 20.5134L30.1267 20.7534C31.0333 20.9 31.2466 21.5667 30.5933 22.22L29.4867 23.3267C29.3 23.5134 29.1933 23.8734 29.26 24.14L29.58 25.5134C29.8333 26.5934 29.26 27.02 28.3 26.4467L26.9667 25.66C26.7267 25.5134 26.3266 25.5134 26.0866 25.66L24.7533 26.4467C23.7933 27.0067 23.22 26.5934 23.4733 25.5134L23.7933 24.14C23.8467 23.8867 23.7533 23.5134 23.5667 23.3267L22.46 22.22C21.8067 21.5667 22.02 20.9134 22.9267 20.7534L24.3533 20.5134C24.5933 20.4734 24.8733 20.26 24.98 20.0467L25.7667 18.4734C26.1533 17.62 26.8467 17.62 27.2733 18.4734Z" stroke="#003366" stroke-width="2.2" stroke-linecap="round" stroke-linejoin="round"/>
</svg>
