<svg width="53" height="53" viewBox="0 0 53 53" fill="none" xmlns="http://www.w3.org/2000/svg">
<rect x="1" y="1" width="51" height="51" rx="9.5" fill="white"/>
<rect x="1" y="1" width="51" height="51" rx="9.5" stroke="#F1F1F1"/>
<path d="M21.1666 13.1666V17.1666" stroke="#003366" stroke-width="2.2" stroke-miterlimit="10" stroke-linecap="round" stroke-linejoin="round"/>
<path d="M31.8334 13.1666V17.1666" stroke="#003366" stroke-width="2.2" stroke-miterlimit="10" stroke-linecap="round" stroke-linejoin="round"/>
<path d="M15.1666 22.62H37.8333" stroke="#003366" stroke-width="2.2" stroke-miterlimit="10" stroke-linecap="round" stroke-linejoin="round"/>
<path d="M38.5 21.8333V33.1666C38.5 37.1666 36.5 39.8333 31.8333 39.8333H21.1667C16.5 39.8333 14.5 37.1666 14.5 33.1666V21.8333C14.5 17.8333 16.5 15.1666 21.1667 15.1666H31.8333C36.5 15.1666 38.5 17.8333 38.5 21.8333Z" stroke="#003366" stroke-width="2.2" stroke-miterlimit="10" stroke-linecap="round" stroke-linejoin="round"/>
<path d="M26.4939 28.7666H26.5059" stroke="#003366" stroke-width="2" stroke-linecap="round" stroke-linejoin="round"/>
<path d="M21.5591 28.7666H21.5711" stroke="#003366" stroke-width="2" stroke-linecap="round" stroke-linejoin="round"/>
<path d="M21.5591 32.7666H21.5711" stroke="#003366" stroke-width="2" stroke-linecap="round" stroke-linejoin="round"/>
</svg>
