<svg width="53" height="53" viewBox="0 0 53 53" fill="none" xmlns="http://www.w3.org/2000/svg">
<rect x="1" y="1" width="51" height="51" rx="9.5" fill="white"/>
<rect x="1" y="1" width="51" height="51" rx="9.5" stroke="#F1F1F1"/>
<path d="M39.8333 16.7267V32.8201C39.8333 34.1001 38.7933 35.3 37.5133 35.46L37.0733 35.5134C34.1666 35.9001 29.6866 37.38 27.1266 38.7934C26.78 38.9934 26.2067 38.9934 25.8467 38.7934L25.7933 38.7668C23.2333 37.3668 18.7667 35.9001 15.8734 35.5134L15.4866 35.46C14.2066 35.3 13.1667 34.1001 13.1667 32.8201V16.7134C13.1667 15.1267 14.46 13.9267 16.0466 14.06C18.8466 14.2867 23.0866 15.7001 25.46 17.1801L25.7933 17.38C26.18 17.62 26.82 17.62 27.2067 17.38L27.4333 17.2334C28.2733 16.7134 29.34 16.1934 30.5 15.7267V21.1667L33.1667 19.3934L35.8333 21.1667V14.2068C36.1933 14.1401 36.54 14.1001 36.86 14.0734H36.94C38.5267 13.9401 39.8333 15.1267 39.8333 16.7267Z" stroke="#003366" stroke-width="2.2" stroke-linecap="round" stroke-linejoin="round"/>
<path d="M26.5 17.8199V37.8199" stroke="#003366" stroke-width="2.2" stroke-linecap="round" stroke-linejoin="round"/>
<path d="M35.8333 14.2067V21.1666L33.1667 19.3933L30.5 21.1666V15.7266C32.2467 15.0333 34.1933 14.4733 35.8333 14.2067Z" stroke="#003366" stroke-width="2.2" stroke-linecap="round" stroke-linejoin="round"/>
</svg>
