<svg width="46" height="44" viewBox="0 0 46 44" fill="none" xmlns="http://www.w3.org/2000/svg">
<rect x="0.855621" width="44.2888" height="43.23" rx="10" fill="#003366"/>
<g clip-path="url(#clip0_11888_10084)">
<path d="M20.3865 24.6526C20.3865 24.6526 19.7269 24.6775 19.8905 25.4962C20.5449 25.3146 20.3865 24.6526 20.3865 24.6526Z" fill="white"/>
<path d="M19.218 24.9607C19.8951 25.0228 19.981 24.3475 19.981 24.3475C19.981 24.3475 19.3549 24.1374 19.218 24.9607Z" fill="white"/>
<path d="M18.5738 24.9706C19.1783 24.6596 18.8894 24.0422 18.8894 24.0422C18.8894 24.0422 18.2483 24.2018 18.5738 24.9706Z" fill="white"/>
<path d="M17.8636 24.3254C18.5343 24.4327 18.666 23.7649 18.666 23.7649C18.666 23.7649 18.0556 23.5131 17.8636 24.3254Z" fill="white"/>
<path d="M17.0938 25.0832C17.7738 25.078 17.7901 24.3974 17.7901 24.3974C17.7901 24.3974 17.149 24.2506 17.0938 25.0832Z" fill="white"/>
<path d="M17.479 23.997C17.479 23.997 16.9289 23.6315 16.5831 24.3909C17.2202 24.6265 17.479 23.997 17.479 23.997Z" fill="white"/>
<path d="M15.9601 24.2332C16.6244 24.0905 16.5054 23.4209 16.5054 23.4209C16.5054 23.4209 15.8452 23.4064 15.9601 24.2332Z" fill="white"/>
<path d="M16.3604 23.0931C16.3604 23.0931 15.8382 22.691 15.4396 23.4256C16.0616 23.7041 16.3604 23.0931 16.3604 23.0931Z" fill="white"/>
<path d="M17.475 23.5584C18.0645 23.8966 18.4242 23.3182 18.4242 23.3182C18.4242 23.3182 17.9426 22.8668 17.475 23.5584Z" fill="white"/>
<path d="M16.8854 23.2991C17.5642 23.2683 17.5578 22.5877 17.5578 22.5877C17.5578 22.5877 16.9091 22.4642 16.8854 23.2991Z" fill="white"/>
<path d="M18.9645 21.5242C18.9645 21.5242 18.4719 21.9634 19.1189 22.4908C19.5082 21.9338 18.9645 21.5242 18.9645 21.5242Z" fill="white"/>
<path d="M18.654 20.8373C18.654 20.8373 17.9967 20.8999 18.2055 21.7076C18.8496 21.4894 18.654 20.8373 18.654 20.8373Z" fill="white"/>
<path d="M13.4962 21.0403C13.4962 21.0403 13.0036 21.4801 13.6505 22.0075C14.0392 21.4505 13.4962 21.0403 13.4962 21.0403Z" fill="white"/>
<path d="M12.6868 21.6815C13.3303 21.4633 13.1348 20.8112 13.1348 20.8112C13.1348 20.8112 12.4774 20.8744 12.6868 21.6815Z" fill="white"/>
<path d="M19.6087 22.5703C20.2069 22.2483 19.9058 21.6379 19.9058 21.6379C19.9058 21.6379 19.2664 21.8085 19.6087 22.5703Z" fill="white"/>
<path d="M17.2543 22.2923C17.9284 22.203 17.8629 21.5253 17.8629 21.5253C17.8629 21.5253 17.2061 21.4586 17.2543 22.2923Z" fill="white"/>
<path d="M16.776 22.5905C17.2982 22.1542 16.8787 21.6169 16.8787 21.6169C16.8787 21.6169 16.2886 21.9134 16.776 22.5905Z" fill="white"/>
<path d="M16.232 21.9326C16.232 21.9326 15.581 21.8218 15.5729 22.6567C16.2511 22.6149 16.232 21.9326 16.232 21.9326Z" fill="white"/>
<path d="M17.4886 21.2718C18.1674 21.2956 18.2156 20.6168 18.2156 20.6168C18.2156 20.6168 17.5791 20.4421 17.4886 21.2718Z" fill="white"/>
<path d="M16.8444 21.3176C17.431 20.9735 17.1072 20.3748 17.1072 20.3748C17.1072 20.3748 16.4754 20.5685 16.8444 21.3176Z" fill="white"/>
<path d="M25.4863 16.1852C25.4863 16.1852 25.3366 16.828 26.1692 16.8861C26.1657 16.2066 25.4863 16.1852 25.4863 16.1852Z" fill="white"/>
<path d="M24.6443 15.9119C24.6443 15.9119 24.3176 16.4857 25.0992 16.7781C25.29 16.126 24.6443 15.9119 24.6443 15.9119Z" fill="white"/>
<path d="M25.7116 17.8521C26.0255 17.2493 25.4331 16.9133 25.4331 16.9133C25.4331 16.9133 25.0014 17.4135 25.7116 17.8521Z" fill="white"/>
<path d="M24.2121 16.1445C24.2121 16.1445 23.7039 16.5658 24.3311 17.1164C24.7407 16.5739 24.2121 16.1445 24.2121 16.1445Z" fill="white"/>
<path d="M23.3801 16.9116C23.3801 16.9116 23.1764 17.54 24.0015 17.6688C24.0537 16.9911 23.3801 16.9116 23.3801 16.9116Z" fill="white"/>
<path d="M27.0251 22.8256C27.0251 22.8256 26.5534 23.3158 27.0251 23.8044C27.5815 23.1812 27.0251 22.8256 27.0251 22.8256Z" fill="white"/>
<path d="M27.8762 23.6831C28.175 22.9033 27.5281 22.7676 27.5281 22.7676C27.5281 22.7676 27.2612 23.3936 27.8762 23.6831Z" fill="white"/>
<path d="M28.4288 24.0173C29.0983 23.5195 28.626 23.0582 28.626 23.0582C28.626 23.0582 28.0638 23.4435 28.4288 24.0173Z" fill="white"/>
<path d="M28.9587 22.9312C28.9587 22.9312 28.7342 23.5734 29.3649 23.8206C29.6126 23.0211 28.9587 22.9312 28.9587 22.9312Z" fill="white"/>
<path d="M29.2352 24.8099C29.6094 24.0638 28.9799 23.8647 28.9799 23.8647C28.9799 23.8647 28.6515 24.4612 29.2352 24.8099Z" fill="white"/>
<path d="M26.6074 26.2122C25.8909 25.784 25.6461 26.3973 25.6461 26.3973C25.6461 26.3973 26.217 26.7697 26.6074 26.2122Z" fill="white"/>
<path d="M30.1557 23.4273C30.1557 23.4273 30.06 24.1015 30.7295 24.221C30.8154 23.3931 30.1557 23.4273 30.1557 23.4273Z" fill="white"/>
<path d="M30.0898 23.3559C30.0364 22.5227 29.3936 22.6683 29.3936 22.6683C29.3936 22.6683 29.4104 23.3489 30.0898 23.3559Z" fill="white"/>
<path d="M30.5094 22.4763C30.5094 22.4763 30.1613 23.06 30.7293 23.4302C31.1314 22.6985 30.5094 22.4763 30.5094 22.4763Z" fill="white"/>
<path d="M29.5795 22.4636C29.9567 21.7186 29.3277 21.5178 29.3277 21.5178C29.3277 21.5178 28.9976 22.1131 29.5795 22.4636Z" fill="white"/>
<path d="M30.0975 20.8291C30.0975 20.8291 29.5985 21.2933 30.0429 21.8062C30.6324 21.2155 30.0975 20.8291 30.0975 20.8291Z" fill="white"/>
<path d="M27.3973 23.8456C27.3973 23.8456 26.8282 24.2198 27.1815 24.8006C27.8609 24.3161 27.3973 23.8456 27.3973 23.8456Z" fill="white"/>
<path d="M25.0389 26.7019C25.7183 26.2168 25.2542 25.748 25.2542 25.748C25.2542 25.748 24.6856 26.1211 25.0389 26.7019Z" fill="white"/>
<path d="M26.3793 27.1405C26.3793 27.1405 25.9563 26.6073 25.4092 27.0099C25.9517 27.6418 26.3793 27.1405 26.3793 27.1405Z" fill="white"/>
<path d="M25.643 28.0173C25.643 28.0173 25.831 27.3628 25.1852 27.1516C24.9862 27.9622 25.643 28.0173 25.643 28.0173Z" fill="white"/>
<path d="M30.7837 21.4059C30.7837 21.4059 30.3845 21.9571 30.9201 22.3754C31.3865 21.6809 30.7837 21.4059 30.7837 21.4059Z" fill="white"/>
<path d="M31.1811 22.8743C31.9447 22.5372 31.5873 21.9832 31.5873 21.9832C31.5873 21.9832 30.9531 22.2344 31.1811 22.8743Z" fill="white"/>
<path d="M31.2678 21.5705C31.6101 20.8087 30.9725 20.637 30.9725 20.637C30.9725 20.637 30.6702 21.2462 31.2678 21.5705Z" fill="white"/>
<path d="M31.7665 21.7446C32.4628 21.2851 32.0172 20.7983 32.0172 20.7983C32.0172 20.7983 31.4352 21.1482 31.7665 21.7446Z" fill="white"/>
<path d="M32.3995 20.6799C32.3995 20.6799 32.2034 21.3321 32.8468 21.5502C33.0569 20.7432 32.3995 20.6799 32.3995 20.6799Z" fill="white"/>
<path d="M23.3987 10.7052C22.8661 11.1282 23.2705 11.6759 23.2705 11.6759C23.2705 11.6759 23.8681 11.3956 23.3987 10.7052Z" fill="white"/>
<path d="M23.4769 12.2631C23.4769 12.2631 24.1349 12.2126 23.9411 11.4009C23.293 11.6074 23.4769 12.2631 23.4769 12.2631Z" fill="white"/>
<path d="M24.8891 11.6533C24.8891 11.6533 25.4177 11.2581 24.8183 10.6774C24.3809 11.1984 24.8891 11.6533 24.8891 11.6533Z" fill="white"/>
<path d="M24.2884 12.9668C24.2884 12.9668 24.8233 12.5798 24.2304 11.9897C23.7871 12.5044 24.2884 12.9668 24.2884 12.9668Z" fill="white"/>
<path d="M26.136 9.99683C25.5122 10.2666 25.76 10.9008 25.76 10.9008C25.76 10.9008 26.4098 10.7853 26.136 9.99683Z" fill="white"/>
<path d="M25.4145 10.5358C25.4145 10.5358 25.8166 10.0136 25.0821 9.61499C24.8041 10.2346 25.4145 10.5358 25.4145 10.5358Z" fill="white"/>
<path d="M26.7139 10.5208C26.0351 10.5521 26.042 11.2327 26.042 11.2327C26.042 11.2327 26.6913 11.3551 26.7139 10.5208Z" fill="white"/>
<path d="M27.5119 10.3385C26.9555 10.7284 27.3263 11.3011 27.3263 11.3011C27.3263 11.3011 27.9395 11.055 27.5119 10.3385Z" fill="white"/>
<path d="M28.3035 10.8799C27.6241 10.8654 27.5852 11.5448 27.5852 11.5448C27.5852 11.5448 28.224 11.7113 28.3035 10.8799Z" fill="white"/>
<path d="M26.3783 11.5494C25.7041 11.4676 25.5979 12.14 25.5979 12.14C25.5979 12.14 26.217 12.3686 26.3783 11.5494Z" fill="white"/>
<path d="M28.6937 14.3181C28.0189 14.2363 27.9133 14.9087 27.9133 14.9087C27.9133 14.9087 28.5324 15.1379 28.6937 14.3181Z" fill="white"/>
<path d="M26.6802 12.4765C26.6802 12.4765 27.3254 12.3373 27.0225 11.5592C26.4092 11.8516 26.6802 12.4765 26.6802 12.4765Z" fill="white"/>
<path d="M26.3287 12.2827C25.716 12.5775 25.9916 13.2006 25.9916 13.2006C25.9916 13.2006 26.6339 13.0602 26.3287 12.2827Z" fill="white"/>
<path d="M25.843 13.8807C25.843 13.8807 26.1255 13.2836 25.3243 13.0498C25.1827 13.7147 25.843 13.8807 25.843 13.8807Z" fill="white"/>
<path d="M25.8565 15.7326C25.8565 15.7326 25.6534 15.1043 24.9096 15.4843C25.2624 16.0651 25.8565 15.7326 25.8565 15.7326Z" fill="white"/>
<path d="M25.5356 14.9459C25.5356 14.9459 25.9319 14.4179 25.1938 14.0286C24.9217 14.6511 25.5356 14.9459 25.5356 14.9459Z" fill="white"/>
<path d="M26.8135 13.5732C26.8135 13.5732 27.4447 13.3788 27.0751 12.6304C26.4897 12.975 26.8135 13.5732 26.8135 13.5732Z" fill="white"/>
<path d="M27.3984 12.1714C27.0885 12.776 27.6827 13.1078 27.6827 13.1078C27.6827 13.1078 28.1109 12.6031 27.3984 12.1714Z" fill="white"/>
<path d="M28.1568 12.563C28.1568 12.563 28.7991 12.4109 28.4817 11.6393C27.8737 11.9433 28.1568 12.563 28.1568 12.563Z" fill="white"/>
<path d="M29.4058 11.7786C28.771 12.0211 28.9915 12.6657 28.9915 12.6657C28.9915 12.6657 29.6465 12.5775 29.4058 11.7786Z" fill="white"/>
<path d="M27.9555 14.3395C27.9555 14.3395 28.4614 13.9148 27.8307 13.3683C27.4246 13.9119 27.9555 14.3395 27.9555 14.3395Z" fill="white"/>
<path d="M27.8581 15.6346C27.8581 15.6346 28.0942 15.0178 27.2779 14.8467C27.1868 15.5203 27.8581 15.6346 27.8581 15.6346Z" fill="white"/>
<path d="M14.1636 22.1091C14.7496 21.765 14.4265 21.1663 14.4265 21.1663C14.4265 21.1663 13.7952 21.36 14.1636 22.1091Z" fill="white"/>
<path d="M12.5445 18.6871C12.7557 19.3334 13.4096 19.1448 13.4096 19.1448C13.4096 19.1448 13.355 18.4869 12.5445 18.6871Z" fill="white"/>
<path d="M12.2979 19.1402C12.2979 19.1402 12.5672 18.5374 11.7607 18.3215C11.6365 18.9893 12.2979 19.1402 12.2979 19.1402Z" fill="white"/>
<path d="M13.0488 17.9907C13.0175 18.6696 13.6963 18.7276 13.6963 18.7276C13.6963 18.7276 13.8779 18.0894 13.0488 17.9907Z" fill="white"/>
<path d="M13.9507 17.6217C13.9507 17.6217 13.7639 16.9881 13.0108 17.3478C13.3479 17.9379 13.9507 17.6217 13.9507 17.6217Z" fill="white"/>
<path d="M14.2192 17.3863C14.2192 17.3863 14.4438 16.7654 13.6239 16.6094C13.5462 17.2847 14.2192 17.3863 14.2192 17.3863Z" fill="white"/>
<path d="M13.187 16.7775C13.187 16.7775 13.3031 16.1282 12.4705 16.1108C12.5064 16.7891 13.187 16.7775 13.187 16.7775Z" fill="white"/>
<path d="M13.9332 16.2119C13.9332 16.2119 14.2738 15.6462 13.4998 15.3346C13.2927 15.9815 13.9332 16.2119 13.9332 16.2119Z" fill="white"/>
<path d="M14.654 17.1245C14.654 17.1245 15.0834 16.6232 14.3715 16.1869C14.0605 16.7909 14.654 17.1245 14.654 17.1245Z" fill="white"/>
<path d="M14.8192 15.8673C14.8772 16.5438 15.5595 16.5055 15.5595 16.5055C15.5595 16.5055 15.6535 15.8534 14.8192 15.8673Z" fill="white"/>
<path d="M16.5856 17.8254C16.5856 17.8254 16.1249 17.3526 15.6271 18.0227C16.201 18.3871 16.5856 17.8254 16.5856 17.8254Z" fill="white"/>
<path d="M17.409 17.6833C17.409 17.6833 17.3168 17.0294 16.519 17.2771C16.7662 17.909 17.409 17.6833 17.409 17.6833Z" fill="white"/>
<path d="M16.9436 18.7903C16.9436 18.7903 16.7446 18.1608 15.9984 18.5351C16.3471 19.1187 16.9436 18.7903 16.9436 18.7903Z" fill="white"/>
<path d="M16.5646 16.8977C16.5646 16.8977 16.6017 16.2386 15.7715 16.3245C15.8904 16.9935 16.5646 16.8977 16.5646 16.8977Z" fill="white"/>
<path d="M16.4857 16.1236C16.8617 16.6899 17.4419 16.3337 17.4419 16.3337C17.4419 16.3337 17.2133 15.7146 16.4857 16.1236Z" fill="white"/>
<path d="M16.2853 15.5057C16.2853 15.5057 15.9627 14.929 15.3076 15.4477C15.7672 15.9473 16.2853 15.5057 16.2853 15.5057Z" fill="white"/>
<path d="M14.5032 18.723C14.5032 18.723 14.6193 18.0732 13.7867 18.0558C13.8215 18.7346 14.5032 18.723 14.5032 18.723Z" fill="white"/>
<path d="M14.7649 18.1632C14.7649 18.1632 15.4147 18.0471 15.138 17.2581C14.5154 17.5296 14.7649 18.1632 14.7649 18.1632Z" fill="white"/>
<path d="M15.5641 19.118C15.5641 19.118 15.9934 18.6162 15.2815 18.1804C14.9682 18.7856 15.5641 19.118 15.5641 19.118Z" fill="white"/>
<path d="M16.1639 17.4448C16.1639 17.4448 16.2579 16.7909 15.4236 16.8066C15.4839 17.4813 16.1639 17.4448 16.1639 17.4448Z" fill="white"/>
<path d="M14.5842 19.0502C14.5842 19.0502 14.015 18.7155 13.7139 19.4924C14.3602 19.6931 14.5842 19.0502 14.5842 19.0502Z" fill="white"/>
<path d="M11.5515 19.6321C11.9646 20.1717 12.5198 19.7771 12.5198 19.7771C12.5198 19.7771 12.2495 19.1749 11.5515 19.6321Z" fill="white"/>
<path d="M33.2648 19.3398C33.2648 19.3398 32.9074 19.92 33.4731 20.296C33.8822 19.5696 33.2648 19.3398 33.2648 19.3398Z" fill="white"/>
<path d="M33.3484 18.8019C33.3484 18.8019 33.4035 19.4807 34.0823 19.4494C33.9837 18.6209 33.3484 18.8019 33.3484 18.8019Z" fill="white"/>
<path d="M33.5716 18.2125C33.5716 18.2125 33.8037 18.8507 34.4489 18.6471C34.1379 17.8725 33.5716 18.2125 33.5716 18.2125Z" fill="white"/>
<path d="M32.1465 19.5927C32.1465 19.5927 32.0629 20.2686 32.7342 20.376C32.805 19.544 32.1465 19.5927 32.1465 19.5927Z" fill="white"/>
<path d="M32.655 17.5423C32.655 17.5423 33.3332 17.4796 33.2932 16.8008C32.467 16.9093 32.655 17.5423 32.655 17.5423Z" fill="white"/>
<path d="M33.8897 16.4347C33.2166 16.929 33.6872 17.3932 33.6872 17.3932C33.6872 17.3932 34.2505 17.0103 33.8897 16.4347Z" fill="white"/>
<path d="M32.2359 17.2563C32.2359 17.2563 32.8474 16.9575 32.5712 16.3367C31.8355 16.7312 32.2359 17.2563 32.2359 17.2563Z" fill="white"/>
<path d="M31.5975 16.3204C31.5975 16.3204 32.274 16.3958 32.3738 15.7239C31.5412 15.6624 31.5975 16.3204 31.5975 16.3204Z" fill="white"/>
<path d="M29.9321 16.9087C29.9321 16.9087 30.6086 16.9842 30.7084 16.3123C29.8782 16.2508 29.9321 16.9087 29.9321 16.9087Z" fill="white"/>
<path d="M31.2616 16.1992C31.2616 16.1992 31.8517 15.8592 31.5337 15.2587C30.8265 15.7019 31.2616 16.1992 31.2616 16.1992Z" fill="white"/>
<path d="M30.6821 15.1379C30.1779 15.8028 30.7604 16.1133 30.7604 16.1133C30.7604 16.1133 31.1921 15.587 30.6821 15.1379Z" fill="white"/>
<path d="M31.3161 18.4219C30.8119 19.0868 31.3945 19.3978 31.3945 19.3978C31.3945 19.3978 31.8261 18.871 31.3161 18.4219Z" fill="white"/>
<path d="M29.7562 17.6333C29.7562 17.6333 30.4119 17.8167 30.6184 17.1692C29.8067 16.9748 29.7562 17.6333 29.7562 17.6333Z" fill="white"/>
<path d="M29.6962 18.7937C29.6962 18.7937 30.371 18.8825 30.4835 18.2135C29.6521 18.1352 29.6962 18.7937 29.6962 18.7937Z" fill="white"/>
<path d="M29.1036 17.9274C29.1036 17.9274 29.1448 17.2474 28.4689 17.1819C28.4491 18.0162 29.1036 17.9274 29.1036 17.9274Z" fill="white"/>
<path d="M27.9237 17.7453C27.9237 17.7453 28.4279 17.2881 27.9893 16.7688C27.3929 17.3525 27.9237 17.7453 27.9237 17.7453Z" fill="white"/>
<path d="M31.909 16.665C31.1379 16.9847 31.4843 17.5469 31.4843 17.5469C31.4843 17.5469 32.122 17.3102 31.909 16.665Z" fill="white"/>
<path d="M31.2709 15.059C31.2709 15.059 31.2709 14.3784 30.5938 14.3523C30.6223 15.1884 31.2709 15.059 31.2709 15.059Z" fill="white"/>
<path d="M28.8435 19.3137C28.8435 19.3137 29.2751 18.7874 28.7651 18.3378C28.2609 19.0033 28.8435 19.3137 28.8435 19.3137Z" fill="white"/>
<path d="M29.5183 17.4337C29.5183 17.4337 29.8994 16.8692 29.35 16.4689C28.9096 17.1779 29.5183 17.4337 29.5183 17.4337Z" fill="white"/>
<path d="M32.3982 18.0964C31.8319 17.4831 31.424 18.0024 31.424 18.0024C31.424 18.0024 31.8667 18.5194 32.3982 18.0964Z" fill="white"/>
<path d="M33.721 17.671C32.9047 17.4969 32.8722 18.159 32.8722 18.159C32.8722 18.159 33.5342 18.3243 33.721 17.671Z" fill="white"/>
<path d="M17.5353 15.1397C17.5353 15.1397 17.6815 14.4957 16.8484 14.4435C16.8553 15.1223 17.5353 15.1397 17.5353 15.1397Z" fill="white"/>
<path d="M16.5831 15.4582C16.9533 16.028 17.537 15.6781 17.537 15.6781C17.537 15.6781 17.3148 15.0561 16.5831 15.4582Z" fill="white"/>
<path d="M23.4061 20.806C23.4061 20.806 23.5001 20.1521 22.6658 20.1678C22.7267 20.8425 23.4061 20.806 23.4061 20.806Z" fill="white"/>
<path d="M20.5029 23.5607C20.5029 23.5607 20.5969 22.9074 19.762 22.9225C19.8229 23.5973 20.5029 23.5607 20.5029 23.5607Z" fill="white"/>
<path d="M24.4323 22.1241C24.4323 22.1241 23.9716 21.6513 23.4738 22.3214C24.0476 22.6852 24.4323 22.1241 24.4323 22.1241Z" fill="white"/>
<path d="M25.2544 21.9832C25.2544 21.9832 25.1627 21.3293 24.3644 21.5742C24.6116 22.2089 25.2544 21.9832 25.2544 21.9832Z" fill="white"/>
<path d="M23.6181 20.6232C23.7341 21.2922 24.4112 21.1964 24.4112 21.1964C24.4112 21.1964 24.4484 20.5373 23.6181 20.6232Z" fill="white"/>
<path d="M25.2885 20.6324C25.2885 20.6324 25.0599 20.0127 24.3323 20.4218C24.7083 20.9904 25.2885 20.6324 25.2885 20.6324Z" fill="white"/>
<path d="M23.1543 19.7453C23.6132 20.246 24.1313 19.8033 24.1313 19.8033C24.1313 19.8033 23.8087 19.2278 23.1543 19.7453Z" fill="white"/>
<path d="M15.679 14.8403C15.679 14.8403 15.357 14.2636 14.702 14.7823C15.1609 15.2801 15.679 14.8403 15.679 14.8403Z" fill="white"/>
<path d="M23.2141 18.5258C22.5915 18.7973 22.841 19.4309 22.841 19.4309C22.841 19.4309 23.4908 19.3137 23.2141 18.5258Z" fill="white"/>
<path d="M24.0106 21.7447C24.0106 21.7447 24.1046 21.0914 23.2702 21.1065C23.3312 21.7795 24.0106 21.7447 24.0106 21.7447Z" fill="white"/>
<path d="M24.7998 18.2983C24.7998 18.2983 25.206 17.7761 24.4703 17.3763C24.1929 17.9954 24.7998 18.2983 24.7998 18.2983Z" fill="white"/>
<path d="M25.3824 19.9767C25.3824 19.9767 25.1602 19.3547 24.4285 19.7562C24.7987 20.3266 25.3824 19.9767 25.3824 19.9767Z" fill="white"/>
<path d="M22.3501 18.8257C22.4853 18.1597 21.8239 18.0001 21.8239 18.0001C21.8239 18.0001 21.5465 18.5995 22.3501 18.8257Z" fill="white"/>
<path d="M19.4029 14.9946C19.2671 15.6601 19.9286 15.8203 19.9286 15.8203C19.9286 15.8203 20.2065 15.2215 19.4029 14.9946Z" fill="white"/>
<path d="M18.4662 15.6038C18.4662 15.6038 19.1206 15.6897 19.0969 14.8553C18.4209 14.9244 18.4662 15.6038 18.4662 15.6038Z" fill="white"/>
<path d="M19.5585 17.2916C20.0035 17.8051 20.5338 17.378 20.5338 17.378C20.5338 17.378 20.228 16.7926 19.5585 17.2916Z" fill="white"/>
<path d="M22.7342 18.0314C22.7342 18.0314 22.834 17.3786 21.9997 17.3844C22.0542 18.0604 22.7342 18.0314 22.7342 18.0314Z" fill="white"/>
<path d="M22.5017 19.7227C22.5017 19.7227 22.4925 19.0624 21.6703 19.2063C21.8362 19.8654 22.5017 19.7227 22.5017 19.7227Z" fill="white"/>
<path d="M28.3997 19.5365C27.725 19.6166 27.7812 20.2942 27.7812 20.2942C27.7812 20.2942 28.4375 20.3702 28.3997 19.5365Z" fill="white"/>
<path d="M27.1245 18.6893C27.1245 18.6893 26.8471 19.2887 27.6507 19.515C27.7865 18.8489 27.1245 18.6893 27.1245 18.6893Z" fill="white"/>
<path d="M27.9176 18.4863C27.9176 18.4863 28.0174 17.8336 27.1831 17.8394C27.2376 18.5171 27.9176 18.4863 27.9176 18.4863Z" fill="white"/>
<path d="M27.1518 19.6803C26.7306 20.2135 27.2493 20.6545 27.2493 20.6545C27.2493 20.6545 27.768 20.2448 27.1518 19.6803Z" fill="white"/>
<path d="M20.1841 15.7059C20.1057 16.3813 20.7788 16.4828 20.7788 16.4828C20.7788 16.4828 21.0039 15.862 20.1841 15.7059Z" fill="white"/>
<path d="M23.8886 13.1519C23.8886 13.1519 23.8474 12.4933 23.0334 12.6761C23.2301 13.3265 23.8886 13.1519 23.8886 13.1519Z" fill="white"/>
<path d="M19.9927 14.7318C20.2886 15.3439 20.9117 15.0689 20.9117 15.0689C20.9117 15.0689 20.7696 14.4243 19.9927 14.7318Z" fill="white"/>
<path d="M16.017 14.1685C15.9393 14.8438 16.6123 14.9453 16.6123 14.9453C16.6123 14.9453 16.8374 14.3245 16.017 14.1685Z" fill="white"/>
<path d="M16.8237 13.9515C16.8237 13.9515 16.6804 13.3069 15.9047 13.6144C16.1983 14.2259 16.8237 13.9515 16.8237 13.9515Z" fill="white"/>
<path d="M19.3104 16.4185C18.6356 16.4997 18.6925 17.1779 18.6925 17.1779C18.6925 17.1779 19.3487 17.2522 19.3104 16.4185Z" fill="white"/>
<path d="M19.1822 17.6908C18.7105 18.1799 19.1822 18.6702 19.1822 18.6702C19.1822 18.6702 19.7386 18.3134 19.1822 17.6908Z" fill="white"/>
<path d="M20.2396 16.8919C20.2396 16.8919 20.5175 16.2931 19.7139 16.0663C19.5776 16.7318 20.2396 16.8919 20.2396 16.8919Z" fill="white"/>
<path d="M31.2718 13.486C31.2718 13.486 30.6255 13.3532 30.5889 14.1875C31.2718 14.1666 31.2718 13.486 31.2718 13.486Z" fill="white"/>
<path d="M32.2944 14.2787C32.2944 14.2787 31.6475 14.1464 31.6115 14.9801C32.2909 14.9598 32.2944 14.2787 32.2944 14.2787Z" fill="white"/>
<path d="M28.445 16.7729C29.1244 16.7525 29.1279 16.072 29.1279 16.072C29.1279 16.072 28.4815 15.9391 28.445 16.7729Z" fill="white"/>
<path d="M30.526 13.0028C30.526 13.0028 30.1872 12.4359 29.5478 12.9732C30.0218 13.46 30.526 13.0028 30.526 13.0028Z" fill="white"/>
<path d="M29.352 14.5183C29.3351 15.1977 30.0145 15.2389 30.0145 15.2389C30.0145 15.2389 30.1822 14.6001 29.352 14.5183Z" fill="white"/>
<path d="M29.8459 16.0152C29.8459 16.0152 29.9208 15.3589 29.0864 15.3972C29.1677 16.072 29.8459 16.0152 29.8459 16.0152Z" fill="white"/>
<path d="M30.5017 13.6799C30.5017 13.6799 30.2116 13.0864 29.5293 13.5639C29.9598 14.0913 30.5017 13.6799 30.5017 13.6799Z" fill="white"/>
<path d="M23.7398 15.1565C23.7398 15.1565 23.434 14.5711 22.7645 15.07C23.2095 15.5835 23.7398 15.1565 23.7398 15.1565Z" fill="white"/>
<path d="M24.1752 14.2427C24.1752 14.2427 24.3998 13.6213 23.5799 13.4652C23.5022 14.1406 24.1752 14.2427 24.1752 14.2427Z" fill="white"/>
<path d="M23.6932 14.7092C23.6932 14.7092 23.9706 14.1104 23.1676 13.8835C23.0324 14.5502 23.6932 14.7092 23.6932 14.7092Z" fill="white"/>
<path d="M21.5479 11.7269C21.5479 11.7269 22.0892 11.3486 21.509 10.7487C21.0565 11.2558 21.5479 11.7269 21.5479 11.7269Z" fill="white"/>
<path d="M29.8596 12.5856C29.8596 12.5856 30.4009 12.2073 29.8207 11.6074C29.3682 12.1134 29.8596 12.5856 29.8596 12.5856Z" fill="white"/>
<path d="M17.4724 13.0336C17.4724 13.0336 17.9023 12.5323 17.1904 12.0966C16.8789 12.7005 17.4724 13.0336 17.4724 13.0336Z" fill="white"/>
<path d="M19.8413 10.7457C19.3638 11.229 19.8308 11.7245 19.8308 11.7245C19.8308 11.7245 20.389 11.3741 19.8413 10.7457Z" fill="white"/>
<path d="M18.9035 13.8806C18.9957 14.5536 19.6734 14.4852 19.6734 14.4852C19.6734 14.4852 19.736 13.8278 18.9035 13.8806Z" fill="white"/>
<path d="M18.8073 13.2158C18.8073 13.2158 19.2471 12.7238 18.5445 12.2729C18.2207 12.8677 18.8073 13.2158 18.8073 13.2158Z" fill="white"/>
<path d="M18.1985 13.7379C17.9786 14.3808 18.6145 14.6245 18.6145 14.6245C18.6145 14.6245 18.9666 14.0669 18.1985 13.7379Z" fill="white"/>
<path d="M20.1811 12.7441C20.1811 12.7441 20.7079 12.3455 20.1062 11.7653C19.6722 12.2909 20.1811 12.7441 20.1811 12.7441Z" fill="white"/>
<path d="M20.6922 13.4792C20.6922 13.4792 21.3467 13.3945 21.1106 12.5944C20.4747 12.834 20.6922 13.4792 20.6922 13.4792Z" fill="white"/>
<path d="M21.09 12.3692C21.09 12.3692 21.3221 11.7507 20.5035 11.5853C20.4182 12.2595 21.09 12.3692 21.09 12.3692Z" fill="white"/>
<path d="M18.6319 11.5557C18.0221 11.2558 17.6995 11.8551 17.6995 11.8551C17.6995 11.8551 18.2089 12.2758 18.6319 11.5557Z" fill="white"/>
<path d="M17.173 14.1823C17.173 14.1823 17.8333 14.1864 17.7062 13.3613C17.0442 13.5139 17.173 14.1823 17.173 14.1823Z" fill="white"/>
<path d="M19.0481 10.2567C18.5706 10.7406 19.0377 11.2355 19.0377 11.2355C19.0377 11.2355 19.5976 10.8845 19.0481 10.2567Z" fill="white"/>
<path d="M22.2391 11.6085C21.7245 12.053 22.1503 12.5838 22.1503 12.5838C22.1503 12.5838 22.7363 12.2792 22.2391 11.6085Z" fill="white"/>
<path d="M21.382 12.2219C21.1853 12.8729 21.8299 13.0922 21.8299 13.0922C21.8299 13.0922 22.1624 12.5196 21.382 12.2219Z" fill="white"/>
<path d="M26.3471 23.4709C26.325 23.4067 26.2811 23.3522 26.223 23.3171C26.1069 23.2637 25.9636 23.3479 25.8824 23.4482C25.6468 23.7383 25.5395 24.2605 25.5662 24.9567C25.9294 24.5767 26.0506 24.0754 26.2769 23.602C26.2972 23.5602 26.3216 23.5155 26.3471 23.4709Z" fill="white"/>
<path d="M19.5122 20.8262C19.6005 20.8558 19.6819 20.9028 19.7516 20.9644C19.8214 21.0259 19.8781 21.1009 19.9184 21.1848C19.8958 21.0355 19.8583 20.889 19.8064 20.7473C19.6788 20.4259 19.3422 20.13 18.8096 19.8671C18.1992 19.5666 17.5912 19.823 17.0568 20.1601C17.4664 20.1021 17.8842 20.2315 18.2996 20.3214C18.5317 20.3719 19.0539 20.4044 19.2123 20.6115C19.0922 20.6655 18.957 20.6243 18.8525 20.7015C19.0069 20.8123 19.3184 20.7531 19.5122 20.8262Z" fill="white"/>
<path d="M23.8732 28.9711C23.7752 28.8998 23.6731 28.8261 23.5721 28.7599C23.4102 28.6538 23.1752 28.5174 23.0012 28.5609C22.9622 28.5722 22.926 28.5917 22.8952 28.6181C22.8644 28.6445 22.8396 28.6773 22.8225 28.7141C22.7262 28.8882 22.8074 29.2305 23.0505 29.6708C23.3064 30.135 23.9394 30.6572 24.5503 30.8057C24.4844 30.6299 24.4318 30.4493 24.3931 30.2656C24.045 30.1014 23.5036 29.7677 23.5338 29.502C23.5413 29.4382 23.582 29.3332 23.7688 29.3332H23.7798C23.9133 29.3332 24.114 29.397 24.3206 29.4823C24.3206 29.4103 24.3206 29.3384 24.3159 29.2659C24.2601 29.2362 24.2059 29.2037 24.1535 29.1684C24.0583 29.1052 23.9643 29.0367 23.8732 28.9711Z" fill="white"/>
<path d="M19.927 13.8226C20.32 13.9605 20.6568 14.2237 20.8855 14.5717L20.9018 14.5873L20.9598 14.6482C21.0143 14.7063 21.0712 14.7614 21.1269 14.8223C21.1524 14.8507 21.1791 14.8803 21.2058 14.907C21.4182 15.1333 21.6375 15.3671 21.6578 15.6984C21.6644 15.9414 21.6012 16.1813 21.4756 16.3894C21.3862 16.5403 21.2679 16.672 21.1275 16.777C21.0831 16.8144 21.0408 16.8543 21.001 16.8965C20.9749 16.9232 20.9488 16.9493 20.9221 16.9748C20.7364 17.3032 20.5119 17.616 20.3309 17.9206C20.2607 18.038 20.1972 18.1593 20.1406 18.2838C20.1506 18.4357 20.1733 18.5865 20.2084 18.7346C20.2595 18.9837 20.3671 19.2177 20.5229 19.4187C20.7474 19.6942 20.9105 19.9159 20.9615 20.2646C21.0683 20.9939 21.4524 21.4963 22.1028 21.7592C22.3152 21.8375 22.5367 21.8887 22.7619 21.9118C22.6934 21.6965 22.701 21.4766 22.7219 21.2184C22.5983 21.2799 22.3987 21.7273 22.3395 21.3229C22.2989 21.0461 22.4283 20.9115 22.2618 20.6266C22.1367 20.4262 22.0011 20.2326 21.8556 20.0464L21.7094 19.9025C21.3033 19.5045 20.8391 19.0531 20.8676 18.4364C20.8768 18.2391 20.9586 17.833 21.2012 17.7082C21.2362 17.6877 21.276 17.6765 21.3167 17.6758C21.3573 17.6751 21.3975 17.6848 21.4332 17.7042C21.4597 17.7197 21.4836 17.7393 21.504 17.7622C21.5614 17.5788 21.636 17.4012 21.7268 17.2319C21.8574 16.9882 21.9937 16.6795 22.2919 16.6366C22.5298 16.6018 23.135 16.9928 23.2818 16.7109C23.2069 16.69 23.1199 16.7051 23.0497 16.6813C22.9528 16.6494 22.9087 16.5652 22.795 16.553C22.8942 16.1916 23.4535 16.1858 23.7366 16.0639C24.1376 15.8899 24.4723 15.5214 24.6696 15.1403C24.998 14.5061 24.8814 13.8748 24.9997 13.2064C25.092 12.6843 25.5521 12.1563 25.5382 11.6219C25.1657 11.9996 24.7479 12.5003 24.5953 13.0144C24.4091 13.6445 24.4648 14.3645 24.108 14.9343C23.826 15.3851 23.4175 15.5249 22.9319 15.6531C22.7196 15.7112 22.5838 15.728 22.5803 15.4837C22.5869 15.2947 22.6161 15.1071 22.6673 14.925C22.7462 14.5833 22.8571 14.252 22.9516 13.9149C22.7491 13.9091 22.5176 14.2932 22.4619 14.455C22.379 14.697 22.4068 14.9569 22.365 15.2058C22.3343 15.3903 22.2339 15.674 22.0668 15.7791C21.9689 15.4748 21.9226 15.1563 21.9299 14.8368C21.9402 14.4917 22.0529 14.1575 22.2537 13.8766C22.4353 13.637 22.636 13.359 22.7265 13.0713C22.8721 12.6071 22.9006 12.0106 22.8292 11.532C22.6209 11.7316 22.6702 12.1928 22.6418 12.4603C22.6178 12.7603 22.4822 13.0404 22.2618 13.2453C22.068 13.4194 21.8678 13.5464 21.6897 13.7385C21.4971 13.9468 21.4849 14.1174 21.3909 14.3581C21.2667 14.3547 21.0283 13.9665 20.9128 13.8737C20.4956 13.5366 19.8783 13.3828 19.558 12.9454C19.4097 12.7234 19.2847 12.4868 19.185 12.2392C19.0927 12.0304 19.0063 11.6666 18.8171 11.532C18.7968 11.8546 18.8566 12.1273 19.0016 12.4203C19.1844 12.7881 19.5952 12.9836 19.7188 13.3759C19.7237 13.3879 19.7244 13.4013 19.7209 13.4138C19.7173 13.4263 19.4562 13.3682 19.4456 13.3759C19.0093 13.3178 18.8867 13.5551 18.4725 13.3492C18.2735 13.2494 18.0843 12.9883 17.8488 13.0011C18.1365 13.7878 19.2911 13.5998 19.927 13.8226Z" fill="white"/>
<path d="M23.714 29.4538C23.6624 29.4649 23.6525 29.4898 23.6496 29.5153C23.6299 29.6842 24.0494 29.9644 24.3679 30.1263C24.343 29.956 24.3285 29.7843 24.3244 29.6122C24.1155 29.5194 23.9072 29.4486 23.772 29.4486C23.7526 29.4485 23.7331 29.4502 23.714 29.4538Z" fill="white"/>
<path d="M28.718 21.7267C28.5846 21.765 28.4511 21.7946 28.3293 21.8213L28.2492 21.8387C28.0989 21.8723 27.9446 21.9025 27.7816 21.9338C27.184 22.0499 26.566 22.1694 26.099 22.4757C25.6604 22.7618 25.5461 23.23 25.4352 23.6889C25.359 24.0329 25.308 24.3819 25.2826 24.7333C25.2757 24.8105 25.2705 24.8865 25.2647 24.9654C25.2583 25.0553 25.2502 25.1475 25.2414 25.2404C25.3035 25.1928 25.3656 25.1446 25.426 25.0947C25.4364 25.0866 25.4457 25.0773 25.4555 25.0686C25.4114 24.2813 25.524 23.7133 25.7926 23.3803C25.9046 23.241 26.0961 23.1366 26.2719 23.2161C26.3343 23.2469 26.3856 23.2963 26.4187 23.3576C26.4657 23.2816 26.515 23.2062 26.5591 23.1343C26.7012 22.9051 26.8973 22.7583 27.1271 22.6161C27.6812 22.2732 28.0461 22.4833 28.6014 22.5912C28.4662 22.4171 28.2881 22.3643 28.1227 22.2465C28.2916 22.0284 28.5115 21.8845 28.718 21.7267Z" fill="white"/>
<path d="M25.2954 18.5072C24.913 18.3192 24.5742 18.7259 24.1588 18.5953C23.9626 18.5338 23.8286 18.441 23.7428 18.2623C23.6934 18.1602 23.6963 17.989 23.5855 17.9536C23.5176 19.0798 24.7349 18.7735 25.3221 19.3258C25.8315 19.8062 25.857 20.6841 25.7317 21.3362C25.6737 21.6263 25.5773 21.8706 25.3163 22.0365C25.1909 22.1166 25.0383 22.1346 24.9148 22.2141C24.7517 22.3185 24.7012 22.5134 24.5608 22.6428C23.9969 23.1615 23.3273 22.7809 22.9322 22.2466C22.8829 22.1808 22.8407 22.11 22.8063 22.0354C22.5501 22.0113 22.298 21.9546 22.0561 21.8665C21.3651 21.5874 20.9566 21.0542 20.8435 20.2814C20.7971 19.9623 20.6427 19.7528 20.4298 19.4918C20.2627 19.2774 20.1472 19.0274 20.0921 18.7613C20.0799 18.7096 20.0602 18.6186 20.0446 18.5095C19.958 18.7394 19.9056 18.9809 19.8891 19.226C20.1226 19.4997 20.3196 19.8026 20.4751 20.1271C20.5608 20.3191 20.6209 20.5216 20.6538 20.7293C20.7118 21.0072 20.7628 21.2695 20.963 21.5138C21.2073 21.8126 21.5363 21.9379 21.8844 22.0702C21.9853 22.1085 22.0898 22.1485 22.1919 22.1926C22.7425 22.4311 23.2983 22.9521 23.6081 23.5201C23.9873 24.2033 24.1843 24.9725 24.1802 25.7539C24.1802 25.9105 24.1721 26.059 24.1646 26.2029C24.1617 26.2523 24.1593 26.3016 24.157 26.3509C24.1698 26.3213 24.1843 26.2929 24.1988 26.2615C24.381 25.8978 24.7123 25.6314 25.0296 25.3912L25.1126 25.3286C25.1271 25.2027 25.137 25.0744 25.1457 24.9497C25.1515 24.8731 25.1573 24.796 25.1642 24.7176C25.1753 24.5906 25.1886 24.4548 25.2054 24.3155C24.8875 23.8433 24.8318 23.382 25.0366 22.9051C25.1526 22.6399 25.3546 22.409 25.5518 22.185C25.8611 21.8369 26.1529 21.5051 26.132 21.0554C26.11 20.7786 26.063 20.5044 25.9916 20.2362C25.9046 19.8666 25.8147 19.4819 25.8541 19.0932C25.8872 18.7601 26.0183 18.4457 26.2794 18.0732C26.366 17.943 26.426 17.797 26.4559 17.6435C26.4857 17.4901 26.4849 17.3322 26.4535 17.1791C26.3998 17.3642 26.3112 17.5373 26.1924 17.6891C26.0763 17.8422 25.5454 18.5739 25.4892 18.0581C25.3377 18.1573 25.3012 18.3331 25.2954 18.5072Z" fill="white"/>
<path d="M21.1818 26.6677C21.2335 26.7686 21.2857 26.8708 21.3344 26.9752C21.3649 27.0466 21.3903 27.1201 21.4104 27.1951C21.4327 27.2835 21.4644 27.3693 21.505 27.451C21.5851 27.3059 21.5897 26.9706 21.5555 26.6886C21.5236 26.4246 21.3994 26.1664 21.2654 25.9575C21.2543 26.1746 21.2303 26.3908 21.1934 26.605C21.1903 26.6259 21.1865 26.6468 21.1818 26.6677Z" fill="white"/>
<path d="M21.911 27.7608C21.7799 29.0077 22.7773 30.2644 23.8257 30.956C24.1082 31.1416 24.4108 31.2944 24.7279 31.4115C24.7598 31.4236 24.7958 31.4358 24.8341 31.448C24.7511 31.278 24.6728 31.1098 24.602 30.9374C23.9226 30.8104 23.2258 30.2267 22.9496 29.7271C22.7634 29.39 22.5725 28.9311 22.721 28.659C22.7456 28.6079 22.7808 28.5626 22.8243 28.5263C22.8679 28.4899 22.9187 28.4634 22.9734 28.4484C23.1892 28.395 23.441 28.5348 23.6366 28.6631C23.7398 28.7304 23.8425 28.8052 23.9417 28.8771C24.0323 28.9421 24.1251 29.01 24.2185 29.0721C24.2504 29.0936 24.2817 29.1127 24.3131 29.1301C24.3092 28.9463 24.2935 28.763 24.2661 28.5812C23.9638 28.3648 23.7219 28.0469 23.524 27.7597C23.2919 27.4226 23.1521 27.0112 23.0697 26.4252C23.0308 26.1508 23.0842 25.8085 23.1405 25.4458C23.2565 24.7165 23.3726 23.9628 22.7959 23.6002C22.4999 23.4134 22.1373 23.32 21.7863 23.2295L21.6122 23.1836C21.3343 23.1112 21.0711 22.991 20.8342 22.8286L20.8557 22.8697C20.8499 23.1825 20.8092 23.4975 20.8406 23.8085C20.8406 23.8236 20.8452 23.8381 20.847 23.8526C20.8213 23.8472 20.7953 23.8432 20.7692 23.8404C20.46 23.8155 20.1745 23.8016 19.8798 23.7145C19.4284 23.5805 19.1835 23.3786 19.1145 22.9069C18.901 22.969 19.0948 23.3281 19.1487 23.4807C18.5906 23.4383 18.25 22.4305 18.1775 22.0029C17.8978 22.0186 18.2842 22.7404 18.3451 22.9011C18.4855 23.2736 18.6683 23.5793 19.0222 23.8079C19.3234 24.0029 19.686 24 19.9923 24.1468C20.3336 24.3233 20.6487 24.5463 20.9288 24.8094C21.0188 24.8936 21.1 24.9867 21.1713 25.0873C21.1742 25.0995 21.1771 25.1122 21.1806 25.1244C21.484 25.371 21.7416 25.6205 21.8983 26.0783C22.0509 26.525 21.9882 27.0855 21.9325 27.5804C21.9244 27.6425 21.9174 27.7022 21.911 27.7608ZM22.2151 23.9129C22.236 23.887 22.2626 23.8662 22.2927 23.8519C22.3228 23.8377 22.3558 23.8304 22.3891 23.8306C22.4584 23.8345 22.5261 23.8528 22.5879 23.8842C22.6497 23.9157 22.7043 23.9596 22.7483 24.0133C22.9374 24.2303 22.9328 24.4984 22.9125 24.6811C22.8852 24.9295 22.8231 25.0687 22.7169 25.1192C22.69 25.1323 22.6604 25.1391 22.6305 25.1389C22.5679 25.1354 22.5075 25.1143 22.4564 25.078C22.2719 24.962 22.1321 24.6428 22.0938 24.5483C21.9882 24.2895 22.0201 24.1172 22.2151 23.9129Z" fill="white"/>
<path d="M22.5163 24.9805C22.5795 25.0205 22.6323 25.0321 22.6666 25.0147C22.7008 24.9973 22.7698 24.9161 22.7971 24.6666C22.8244 24.4171 22.782 24.2268 22.6608 24.0864C22.5933 24.0074 22.4974 23.9582 22.3939 23.9495C22.3771 23.9491 22.3604 23.9525 22.3451 23.9596C22.3298 23.9666 22.3163 23.9771 22.3057 23.9901L22.3022 23.9942C22.138 24.1682 22.1136 24.2907 22.2013 24.5076C22.2715 24.6829 22.3939 24.9016 22.5163 24.9805Z" fill="white"/>
<path d="M20.7858 27.8989C20.6344 28.714 21.1995 29.4491 21.1513 30.2579C21.1316 30.5869 21.0011 30.9629 20.8206 31.3023C20.8479 31.3244 20.8723 31.3481 20.896 31.3714C20.9715 31.445 21.0347 31.5083 21.1629 31.5077C21.337 31.5077 21.5215 31.3731 21.6573 31.152C21.9021 30.7534 21.8702 30.2579 21.807 29.8257C21.742 29.3807 21.6579 29.0796 21.4008 28.7587C21.102 28.3839 20.9709 28.1541 20.9303 27.6981C20.923 27.612 20.9203 27.5257 20.9222 27.4393C20.8635 27.5883 20.8179 27.742 20.7858 27.8989Z" fill="white"/>
<path d="M26.7292 33.191H26.7217C26.5772 33.1759 26.427 33.1602 26.279 33.1393C26.0769 33.1019 25.8814 33.0348 25.6988 32.9403C25.6338 32.9107 25.5665 32.8794 25.4992 32.8521C25.0211 32.6549 24.6394 32.6079 24.3324 32.7071C24.3083 32.7129 24.2856 32.7236 24.2657 32.7384C24.3091 32.7854 24.3594 32.8255 24.4148 32.8573C24.5158 32.9246 24.6243 32.9867 24.7293 33.0471C24.7809 33.0761 24.832 33.1051 24.8825 33.1353C24.9329 33.1654 24.9718 33.1898 25.0159 33.2176C25.7383 33.2832 26.4293 33.5472 27.1737 33.5002C27.1342 33.2948 26.9265 33.2327 26.7292 33.191Z" fill="white"/>
<path d="M23.3974 33.0906C23.203 32.9484 23.0023 32.8005 22.8021 32.6682C22.4981 32.4674 22.2591 32.3926 21.922 32.3926H21.9185C21.4601 32.3926 21.1433 32.6148 20.808 32.8492C20.5509 33.0291 20.2858 33.2153 19.9481 33.2989C19.7224 33.3569 19.4961 33.311 19.2774 33.2687C19.1148 33.2306 18.9483 33.2123 18.7813 33.2141C18.9762 33.2605 19.1647 33.3306 19.3424 33.423C19.7688 33.6313 20.3769 33.6551 20.8509 33.5698C21.4062 33.4729 21.857 33.202 22.4407 33.3145C22.7818 33.3801 23.1224 33.4857 23.481 33.4364C23.5828 33.4213 23.6832 33.3984 23.7815 33.3679C23.651 33.2774 23.5239 33.184 23.3974 33.0906Z" fill="white"/>
<path d="M28.7801 20.3952C28.472 20.6679 28.0838 20.6215 27.7357 20.7834C27.7873 20.7921 27.8384 20.8031 27.8865 20.8136C27.9486 20.8275 28.0072 20.8402 28.0606 20.8478C28.285 20.881 28.5141 20.839 28.7122 20.7283C29.0127 20.5461 29.1032 20.2061 29.0568 19.8707C29.0335 20.0741 28.9347 20.2612 28.7801 20.3952Z" fill="white"/>
<path d="M32.3085 18.857C32.012 19.0102 31.8629 19.2347 31.6163 19.4372C31.408 19.6066 31.0587 19.6228 30.7988 19.6617C30.5557 19.6977 30.3521 19.7824 30.1368 19.841C30.0788 19.5718 30.3579 19.4349 30.5215 19.2852C30.6899 19.1358 30.8109 18.9403 30.8696 18.723C30.9508 18.4578 30.9149 18.1828 30.9671 17.9159C31.0065 17.7117 31.039 17.5034 31.0831 17.2997C31.1319 17.0734 31.3111 16.8541 31.3465 16.6435C31.4191 16.2089 31.0825 16.8048 31.0199 16.9174C30.8563 17.2075 30.7112 17.4686 30.6549 17.8068C30.6015 18.1283 30.666 18.4828 30.5296 18.7897C30.4136 19.0508 30.1536 19.0618 29.9401 19.2161C29.8044 19.3142 29.5641 19.6327 29.4255 19.4807C29.3036 19.3473 29.3982 18.9585 29.4255 18.8053C29.4536 18.5855 29.5121 18.3707 29.5995 18.1671C29.632 18.0981 29.9001 17.649 29.6413 17.819C29.5189 17.8997 29.4214 18.26 29.3443 18.3934C29.2218 18.6063 29.1122 18.8291 29.0837 19.0757C29.0719 19.2135 29.069 19.3519 29.075 19.49C29.2712 19.9623 29.2369 20.5506 28.7768 20.8297C28.556 20.9542 28.3001 21.0017 28.0492 20.9649C27.9912 20.9567 27.9257 20.9428 27.8642 20.9295C27.7662 20.9039 27.6659 20.8887 27.5648 20.8842C27.4273 20.973 27.2689 21.0803 27.125 21.0844C26.8645 21.0925 26.7676 20.6666 26.698 20.4862C26.5935 20.2152 26.3847 19.9095 26.373 19.6159C26.3585 19.2596 26.4752 18.9695 26.6788 18.6684C26.8575 18.4038 26.8883 18.2083 26.9521 17.9014C27.0681 17.3403 27.4777 16.9052 27.9065 16.5559C28.4287 16.1295 28.8598 15.8788 28.9596 15.1634C28.9908 14.8743 29.0413 14.5876 29.111 14.3053C29.169 14.0964 29.2764 13.9085 29.2526 13.6857C29.1197 13.6996 29.0704 13.9177 28.9816 14.003C28.8279 13.6004 29.0112 13.0271 28.8076 12.6471C28.5888 12.9041 28.6985 13.2708 28.7426 13.5795C28.8006 13.97 28.8586 14.4637 28.7646 14.8484C28.665 15.2152 28.4287 15.5299 28.1044 15.728C27.8653 15.8806 27.5538 15.9119 27.3362 16.0871C27.2323 16.1712 27.0623 16.5791 26.9503 16.5838C26.8111 16.5896 26.7548 16.2269 26.7409 16.1306C26.6649 15.62 26.8418 15.2905 27.0786 14.8577C27.183 14.6656 27.6158 13.9758 27.3455 13.8087C27.2404 13.9276 27.2294 14.1371 27.1534 14.2844C27.0722 14.4417 26.9411 14.5873 26.8418 14.7335C26.7426 14.8797 26.6045 15.0236 26.5517 15.1977C26.5117 15.3398 26.5378 15.5156 26.4653 15.638C26.1914 15.4686 26.2611 14.8257 26.3092 14.5664C26.3754 14.2113 26.514 13.7733 26.3348 13.4309C26.3852 13.8644 26.0882 14.3825 26.0336 14.8199C25.987 15.1892 26.015 15.5641 26.116 15.9223C26.2065 16.2391 26.4386 16.5246 26.481 16.8506C26.633 17.2417 26.6597 17.7471 26.3777 18.1491C26.1282 18.5042 26.0035 18.8019 25.9715 19.1134C25.9344 19.4859 26.022 19.8584 26.1067 20.2193C26.18 20.4944 26.2284 20.7756 26.2512 21.0594C26.2762 21.5561 25.9547 21.9199 25.6437 22.272C25.4523 22.4885 25.2544 22.7124 25.1477 22.9607C24.9736 23.3599 25.0055 23.7487 25.2347 24.1449C25.2579 23.986 25.2869 23.8247 25.3246 23.6686C25.4407 23.1905 25.5608 22.6968 26.0371 22.3852C26.5251 22.0667 27.1546 21.9448 27.7632 21.827C27.9257 21.7957 28.0788 21.7655 28.2274 21.7325L28.308 21.7151C28.5355 21.6707 28.7577 21.6028 28.9712 21.5126C29.0343 21.4503 29.0909 21.3816 29.14 21.3078C29.4626 20.821 29.7864 20.5599 30.3759 20.4641C30.5992 20.4282 30.898 20.391 31.0941 20.2849C31.3657 20.1386 31.5629 19.8114 31.7643 19.5886C32.1124 19.2045 32.6317 18.9643 33.025 18.6156C32.7741 18.6543 32.5317 18.7359 32.3085 18.857Z" fill="white"/>
<path d="M28.5488 33.2239C28.6386 33.2201 28.728 33.2115 28.8169 33.1984C28.7387 33.1524 28.6635 33.1014 28.5918 33.0458C28.5105 32.9788 28.433 32.9073 28.3597 32.8317C28.2274 32.7012 28.0905 32.5666 27.9437 32.5062C27.7232 32.4169 27.4833 32.3861 27.2474 32.4169C27.0339 32.4465 26.8454 32.5329 26.6458 32.6269C26.5686 32.6629 26.4891 32.7 26.4073 32.7337L26.3278 32.7679C26.2343 32.8128 26.136 32.8473 26.0348 32.8706C25.9977 32.8781 25.9536 32.8822 25.9107 32.8868L25.8718 32.8909C26.0059 32.9547 26.1483 32.9992 26.2948 33.0232C26.4415 33.0435 26.5901 33.0592 26.734 33.0742L26.7653 33.0777C26.9043 33.0887 27.0437 33.0916 27.183 33.0864C27.3055 33.0864 27.432 33.0824 27.5515 33.0899C27.6785 33.1008 27.8045 33.1221 27.928 33.1537C28.0203 33.1746 28.116 33.1961 28.2094 33.2077C28.3219 33.2224 28.4354 33.2278 28.5488 33.2239Z" fill="white"/>
<path d="M16.6547 20.2907C17.2929 19.848 18.0605 19.3676 18.8629 19.7627C19.424 20.0389 19.7785 20.3556 19.916 20.7043C20.0069 20.959 20.0599 21.2257 20.0732 21.4957C20.2043 21.7539 20.354 21.9959 20.5055 22.25C20.5658 22.3509 20.6238 22.4509 20.6795 22.55C20.6865 22.5575 20.6923 22.5662 20.6998 22.5732C20.9238 22.7925 21.2673 22.9752 21.6415 23.075L21.8156 23.1203C22.1747 23.2131 22.5466 23.3089 22.8599 23.5056C23.4981 23.9088 23.3705 24.7367 23.2568 25.4672C23.2022 25.8211 23.15 26.1547 23.1866 26.4124C23.2661 26.9792 23.4007 27.3749 23.6217 27.6969C23.7911 27.9423 23.993 28.211 24.2356 28.4129C24.2193 28.3357 24.2031 28.2603 24.1857 28.186C24.2015 28.1208 24.2208 28.0565 24.2437 27.9934C24.3713 27.6528 24.5616 27.4294 24.8442 27.2125C25.0275 27.072 25.2347 26.963 25.4035 26.8063C25.4424 26.7703 25.584 26.681 25.5944 26.6264C25.6106 26.5429 25.5317 26.5742 25.4749 26.6009C25.363 26.6604 25.2549 26.7267 25.1511 26.7993C24.9771 26.9061 24.8158 27.0152 24.6545 27.1341C24.6963 26.9311 24.7885 26.6218 24.7456 26.5139C24.6446 26.6827 24.5355 26.9781 24.4926 27.0674C24.4508 27.155 24.4155 27.2456 24.387 27.3384C24.271 27.4231 24.1549 27.4985 24.0464 27.578C23.9861 27.2959 23.9837 27.0046 24.0395 26.7216C24.0337 26.5475 24.0395 26.3735 24.0516 26.1994C24.0592 26.0573 24.0673 25.9093 24.0673 25.7567C24.0714 24.9948 23.8791 24.2447 23.5092 23.5787C23.2109 23.0315 22.6772 22.5308 22.1492 22.3022C22.0494 22.2587 21.9461 22.2192 21.8463 22.1815C21.4982 22.0492 21.1402 21.9129 20.8762 21.5903C20.6581 21.3234 20.5995 21.0345 20.5432 20.7554C20.5114 20.5574 20.4542 20.3644 20.3732 20.181C20.2216 19.8654 20.0299 19.5707 19.8028 19.3043C19.4913 19.1802 19.182 19.0392 18.8594 19.0363C18.786 19.0354 18.7126 19.0385 18.6395 19.0455C18.6279 18.9138 18.6552 18.7827 18.7097 18.5814C18.5519 18.6789 18.4231 18.8999 18.2821 19.1036H18.252C18.1104 19.1175 17.7994 19.2469 17.6787 19.0885C17.5754 18.9533 17.6718 18.6864 17.7298 18.5489C17.8035 18.3748 17.9549 18.3017 18.0779 18.1665C18.1869 18.0506 18.2602 17.9058 18.2891 17.7494C18.3073 17.6212 18.3099 17.4912 18.2966 17.3624C18.2937 17.2945 18.2926 17.226 18.292 17.1576C18.3589 16.9635 18.4446 16.7763 18.5479 16.5988C18.6901 16.3571 18.7649 16.0816 18.7643 15.8011C18.7312 16.0163 18.5786 16.2072 18.4481 16.376C18.3748 16.4756 18.3201 16.5877 18.2868 16.7068C18.282 16.5256 18.2463 16.3467 18.1812 16.1776C18.0071 15.7494 18.0918 15.2963 17.963 14.8693C17.5314 15.3914 17.9572 16.1306 18.0164 16.6963C18.0483 17.0032 18.0431 17.3345 17.9207 17.6246C17.829 17.5167 17.6776 17.3897 17.641 17.3177C17.5838 17.1955 17.5352 17.0695 17.4954 16.9406C17.4658 16.8524 17.4374 16.6638 17.3735 16.6139C17.2111 16.748 17.4182 17.1698 17.4965 17.3102C17.6207 17.5335 17.7025 17.7076 17.7286 17.9356C17.5987 18.0981 17.4449 18.2425 17.3283 18.4172C17.1954 18.6156 17.1444 18.9974 16.9802 19.1494C16.8467 19.2712 15.6968 19.3142 15.5297 19.2828C15.3141 19.2427 15.1159 19.1381 14.9611 18.9829C14.7522 18.7792 14.7748 18.5686 14.6652 18.3151C14.4911 18.915 14.8671 19.4795 15.4194 19.6954C15.2668 19.971 14.7603 19.9855 14.4911 20.098C14.1053 20.2593 13.8007 20.5465 13.3556 20.3922C13.0655 20.2924 12.9495 20.0336 12.8248 19.7725C12.743 19.5985 12.6919 19.2852 12.4766 19.2446C12.6408 19.5695 12.7052 19.8828 12.8155 20.2263C13.0325 20.9028 13.9103 21.0258 14.5265 20.9266C14.7232 20.8952 14.8868 20.7995 15.0556 20.702C15.3265 20.5495 15.6102 20.4208 15.9033 20.3173C15.6898 20.7978 15.4391 21.3037 14.9036 21.5004C15.1038 21.6872 15.5825 21.1772 15.7351 21.0739C15.7438 21.7974 14.6605 22.1705 14.7487 22.8859C14.8294 22.6614 14.8723 22.4571 15.0667 22.2947C15.2512 22.1403 15.4624 22.0231 15.6364 21.8508C16.0936 21.4035 16.0756 20.6045 16.6547 20.2907Z" fill="white"/>
<path d="M22.7628 31.8779C22.7805 31.879 22.7983 31.8763 22.8149 31.8698C22.8314 31.8632 22.8463 31.8531 22.8585 31.8402C22.9902 31.7154 22.84 31.4462 22.7425 31.2681C22.7204 31.2286 22.7001 31.1927 22.6845 31.1631C22.6688 31.1335 22.6624 31.1109 22.6502 31.0778C22.6218 31.0018 22.5742 30.8747 22.5185 30.8602C22.505 30.8593 22.4914 30.8612 22.4786 30.8658C22.4658 30.8704 22.4541 30.8776 22.4443 30.8869C22.334 31.1027 22.2917 31.4091 22.4443 31.611C22.5684 31.7822 22.6781 31.8703 22.7628 31.8779Z" fill="white"/>
<path d="M21.3752 17.805C21.3559 17.7948 21.3342 17.7899 21.3123 17.7909C21.2905 17.7919 21.2693 17.7988 21.251 17.8108C21.0712 17.9031 20.9899 18.2466 20.9806 18.4409C20.9592 18.9103 21.2481 19.2753 21.5812 19.6147C21.3247 19.0867 21.3114 18.4682 21.4616 17.8973C21.4411 17.8597 21.4113 17.828 21.3752 17.805Z" fill="white"/>
<path d="M21.3758 16.3313C21.4902 16.1429 21.548 15.9256 21.5423 15.7053C21.5249 15.4152 21.3195 15.1976 21.1216 14.9864L21.088 14.9504C21.1722 15.1533 21.2307 15.366 21.2621 15.5834C21.3201 15.9687 21.2307 16.3261 21.077 16.6649C21.1974 16.5743 21.2989 16.461 21.3758 16.3313Z" fill="white"/>
<g filter="url(#filter0_d_11888_10084)">
<path d="M17.8105 33.3359C17.9846 33.2653 18.1669 33.2172 18.353 33.1926C18.4881 33.143 18.6292 33.1112 18.7725 33.0981C18.9506 33.0952 19.1284 33.1147 19.3017 33.1561C19.5175 33.1979 19.7211 33.2373 19.9219 33.1874C20.2387 33.1091 20.4957 32.9292 20.744 32.7552C21.0788 32.5231 21.4258 32.2782 21.9207 32.2777H21.9236C22.2822 32.2777 22.5473 32.3606 22.8682 32.5724C23.0712 32.7064 23.2743 32.855 23.4681 32.9983C23.6184 33.1091 23.7698 33.2199 23.9241 33.3261C24.0344 33.2905 24.1468 33.2618 24.2606 33.2402C24.4283 33.2121 24.5983 33.1999 24.7683 33.2037L24.6708 33.1456C24.5641 33.0847 24.4538 33.0215 24.3494 32.9524C24.245 32.8834 24.1359 32.8103 24.1481 32.7204C24.1585 32.6472 24.2374 32.6136 24.2954 32.5944C24.6296 32.4865 25.0375 32.5364 25.5423 32.743C25.5957 32.765 25.6479 32.7882 25.6995 32.812C25.7639 32.7871 25.8319 32.7732 25.9009 32.7708C25.9409 32.7668 25.9827 32.7621 26.0169 32.7563C26.1095 32.7342 26.1996 32.7023 26.2855 32.6612L26.3673 32.6258C26.4463 32.5933 26.5252 32.5567 26.5994 32.5213C26.7984 32.4291 27.0056 32.3334 27.2347 32.3014C27.4903 32.2682 27.7501 32.3016 27.989 32.3983C28.1567 32.4674 28.3017 32.6101 28.4421 32.7465C28.5131 32.819 28.5881 32.8876 28.6667 32.9518C28.7727 33.0347 28.8868 33.1066 29.0073 33.1665C29.3554 33.1085 29.6733 33.0348 30.0557 33.1665C29.7563 32.8811 29.4418 32.9304 29.0305 32.8764C28.5634 32.8126 28.4352 32.4767 28.1021 32.1802C27.5637 31.7009 27.1158 32.1802 26.4828 32.1802C25.8266 32.1802 25.3932 32.5765 25.0323 31.8471C24.9894 31.7607 24.947 31.676 24.9052 31.5913C24.8246 31.5663 24.7492 31.542 24.6871 31.5193C24.3608 31.3994 24.0493 31.2425 23.7588 31.0517C22.6825 30.3404 21.6579 29.043 21.7948 27.7474C21.8006 27.6894 21.8075 27.6285 21.8145 27.5676C21.8685 27.0849 21.9306 26.5377 21.7849 26.1171C21.6767 25.8015 21.4811 25.523 21.221 25.3141C21.2483 25.458 21.2634 25.6039 21.2662 25.7504C21.4403 25.9923 21.6277 26.3248 21.6695 26.6729C21.6845 26.7948 21.7478 27.4138 21.5395 27.5885L21.4983 27.6227L21.4606 27.5844C21.3794 27.5003 21.3382 27.361 21.2981 27.2264C21.2798 27.1567 21.2563 27.0885 21.2279 27.0222C21.1995 26.9607 21.1699 26.8998 21.1392 26.8389C21.1165 26.9183 21.0898 26.9961 21.0614 27.0709C21.0378 27.2737 21.0329 27.4782 21.0469 27.6819C21.0864 28.1275 21.221 28.3375 21.4919 28.6798C21.7629 29.0222 21.854 29.3488 21.9207 29.8019C21.9874 30.2551 22.0193 30.7761 21.7553 31.206C21.6799 31.329 21.471 31.6122 21.1629 31.6174H21.1577C20.9877 31.6174 20.8955 31.5275 20.8137 31.448C20.7963 31.4306 20.7794 31.4143 20.762 31.3992L20.7574 31.4085C20.2445 31.4085 19.6289 31.1445 19.2657 31.0024C18.483 30.7007 17.9051 31.405 17.4955 32.0102C17.3031 32.3089 17.0644 32.5751 16.7882 32.7987C16.9701 32.7868 17.1484 32.7421 17.3145 32.667C17.4764 32.5866 17.6267 32.4848 17.7612 32.3641C17.9121 32.1581 18.0554 31.9498 18.2521 31.7764C18.6582 31.4195 19.2065 31.6748 19.5732 32.1164C19.4745 32.0661 19.3716 32.0246 19.2657 31.9922C19.0493 31.9388 18.9396 31.9922 18.7302 32.0433C18.3374 32.1338 18.0212 32.3676 17.6916 32.5654C17.3961 32.8022 17.0257 32.9257 16.6472 32.9136C16.6072 32.9136 16.5666 32.9136 16.526 32.9095C16.0792 32.9333 15.7921 32.9002 15.7341 33.3359C16.2261 33.0661 16.385 33.3342 16.8909 33.2797C17.3696 33.2274 17.7543 32.9408 18.255 32.9315C18.074 33.0174 17.8842 33.1538 17.8105 33.3359ZM22.3471 30.8219L22.3524 30.8121L22.3616 30.8045C22.3856 30.7802 22.4152 30.7622 22.4478 30.7521C22.4804 30.7419 22.515 30.74 22.5485 30.7465C22.6645 30.7773 22.7156 30.9206 22.7585 31.0366C22.7695 31.0656 22.78 31.0946 22.7887 31.1115C22.8026 31.1399 22.8212 31.1735 22.8426 31.2112C22.9587 31.4201 23.1362 31.7369 22.9389 31.9237C22.9175 31.9456 22.892 31.963 22.8638 31.9749C22.8356 31.9869 22.8054 31.9932 22.7747 31.9934H22.7544C22.5937 31.98 22.4481 31.8083 22.3518 31.6806C22.1621 31.434 22.2137 31.0708 22.3454 30.8219H22.3471Z" fill="white"/>
</g>
</g>
<defs>
<filter id="filter0_d_11888_10084" x="11.7341" y="25.3141" width="22.3216" height="16.0219" filterUnits="userSpaceOnUse" color-interpolation-filters="sRGB">
<feFlood flood-opacity="0" result="BackgroundImageFix"/>
<feColorMatrix in="SourceAlpha" type="matrix" values="0 0 0 0 0 0 0 0 0 0 0 0 0 0 0 0 0 0 127 0" result="hardAlpha"/>
<feOffset dy="4"/>
<feGaussianBlur stdDeviation="2"/>
<feComposite in2="hardAlpha" operator="out"/>
<feColorMatrix type="matrix" values="0 0 0 0 0 0 0 0 0 0 0 0 0 0 0 0 0 0 0.25 0"/>
<feBlend mode="normal" in2="BackgroundImageFix" result="effect1_dropShadow_11888_10084"/>
<feBlend mode="normal" in="SourceGraphic" in2="effect1_dropShadow_11888_10084" result="shape"/>
</filter>
<clipPath id="clip0_11888_10084">
<rect width="22.897" height="24" fill="white" transform="translate(11.5515 9.61499)"/>
</clipPath>
</defs>
</svg>
