<svg width="77" height="81" viewBox="0 0 77 81" fill="none" xmlns="http://www.w3.org/2000/svg">
<g clip-path="url(#clip0_12752_9003)">
<path d="M29.4502 50.873C29.4502 50.873 27.2513 50.9561 27.7967 53.685C29.9782 53.0797 29.4502 50.873 29.4502 50.873Z" fill="#003366"/>
<path d="M25.5551 51.9C27.8121 52.107 28.0983 49.8558 28.0983 49.8558C28.0983 49.8558 26.0115 49.1557 25.5551 51.9Z" fill="#003366"/>
<path d="M23.4076 51.9328C25.4228 50.8962 24.4597 48.8384 24.4597 48.8384C24.4597 48.8384 22.3226 49.3702 23.4076 51.9328Z" fill="#003366"/>
<path d="M21.0403 49.7823C23.276 50.1401 23.715 47.9141 23.715 47.9141C23.715 47.9141 21.6804 47.0747 21.0403 49.7823Z" fill="#003366"/>
<path d="M18.4745 52.3082C20.7412 52.2908 20.7953 50.0222 20.7953 50.0222C20.7953 50.0222 18.6582 49.5329 18.4745 52.3082Z" fill="#003366"/>
<path d="M19.7583 48.6877C19.7583 48.6877 17.9249 47.4692 16.7722 50.0009C18.8958 50.7861 19.7583 48.6877 19.7583 48.6877Z" fill="#003366"/>
<path d="M14.6952 49.4747C16.9097 48.999 16.5132 46.7671 16.5132 46.7671C16.5132 46.7671 14.3123 46.7188 14.6952 49.4747Z" fill="#003366"/>
<path d="M16.0298 45.6745C16.0298 45.6745 14.2892 44.3342 12.9605 46.7826C15.0338 47.711 16.0298 45.6745 16.0298 45.6745Z" fill="#003366"/>
<path d="M19.7451 47.2255C21.71 48.353 22.9091 46.4248 22.9091 46.4248C22.9091 46.4248 21.3039 44.9201 19.7451 47.2255Z" fill="#003366"/>
<path d="M17.7796 46.361C20.0424 46.2585 20.0211 43.9899 20.0211 43.9899C20.0211 43.9899 17.8589 43.578 17.7796 46.361Z" fill="#003366"/>
<path d="M24.7101 40.4448C24.7101 40.4448 23.0682 41.9089 25.2246 43.6669C26.5223 41.8102 24.7101 40.4448 24.7101 40.4448Z" fill="#003366"/>
<path d="M23.6752 38.1551C23.6752 38.1551 21.484 38.3639 22.1802 41.0561C24.327 40.3289 23.6752 38.1551 23.6752 38.1551Z" fill="#003366"/>
<path d="M6.48231 38.832C6.48231 38.832 4.84034 40.2979 6.99675 42.056C8.29253 40.1993 6.48231 38.832 6.48231 38.832Z" fill="#003366"/>
<path d="M3.78454 40.9689C5.92935 40.2418 5.27759 38.0679 5.27759 38.0679C5.27759 38.0679 3.08636 38.2787 3.78454 40.9689Z" fill="#003366"/>
<path d="M26.8574 43.9318C28.8513 42.8585 27.8476 40.8239 27.8476 40.8239C27.8476 40.8239 25.7163 41.3925 26.8574 43.9318Z" fill="#003366"/>
<path d="M19.0092 43.0056C21.2565 42.7077 21.038 40.4488 21.038 40.4488C21.038 40.4488 18.8487 40.2264 19.0092 43.0056Z" fill="#003366"/>
<path d="M17.4151 43.9995C19.1557 42.5451 17.7574 40.7543 17.7574 40.7543C17.7574 40.7543 15.7905 41.7425 17.4151 43.9995Z" fill="#003366"/>
<path d="M15.6016 41.8064C15.6016 41.8064 13.4317 41.437 13.4046 44.2201C15.6655 44.0808 15.6016 41.8064 15.6016 41.8064Z" fill="#003366"/>
<path d="M19.7903 39.6038C22.0531 39.6831 22.2136 37.4203 22.2136 37.4203C22.2136 37.4203 20.092 36.8381 19.7903 39.6038Z" fill="#003366"/>
<path d="M17.643 39.7564C19.5983 38.6095 18.5191 36.6136 18.5191 36.6136C18.5191 36.6136 16.413 37.2596 17.643 39.7564Z" fill="#003366"/>
<path d="M46.4494 22.6483C46.4494 22.6483 45.9504 24.7912 48.7257 24.9846C48.7141 22.7198 46.4494 22.6483 46.4494 22.6483Z" fill="#003366"/>
<path d="M43.6427 21.7372C43.6427 21.7372 42.5538 23.65 45.1589 24.6247C45.7952 22.4509 43.6427 21.7372 43.6427 21.7372Z" fill="#003366"/>
<path d="M47.2003 28.2048C48.2466 26.1953 46.272 25.0755 46.272 25.0755C46.272 25.0755 44.8331 26.7427 47.2003 28.2048Z" fill="#003366"/>
<path d="M42.2022 22.5128C42.2022 22.5128 40.508 23.9169 42.5987 25.7523C43.9641 23.944 42.2022 22.5128 42.2022 22.5128Z" fill="#003366"/>
<path d="M39.4286 25.0696C39.4286 25.0696 38.7498 27.1642 41.4999 27.5935C41.674 25.3346 39.4286 25.0696 39.4286 25.0696Z" fill="#003366"/>
<path d="M51.5788 44.7828C51.5788 44.7828 50.0064 46.4171 51.5788 48.0455C53.4335 45.9684 51.5788 44.7828 51.5788 44.7828Z" fill="#003366"/>
<path d="M54.4158 47.6414C55.4118 45.0421 53.2554 44.5896 53.2554 44.5896C53.2554 44.5896 52.3658 46.6764 54.4158 47.6414Z" fill="#003366"/>
<path d="M56.2576 48.7553C58.4895 47.096 56.9152 45.5584 56.9152 45.5584C56.9152 45.5584 55.0412 46.8426 56.2576 48.7553Z" fill="#003366"/>
<path d="M58.0242 45.1349C58.0242 45.1349 57.2758 47.2759 59.378 48.0997C60.2038 45.4347 58.0242 45.1349 58.0242 45.1349Z" fill="#003366"/>
<path d="M58.9457 51.3973C60.1931 48.9102 58.0947 48.2468 58.0947 48.2468C58.0947 48.2468 57.0001 50.235 58.9457 51.3973Z" fill="#003366"/>
<path d="M50.1865 56.0716C47.798 54.6443 46.9819 56.6885 46.9819 56.6885C46.9819 56.6885 48.885 57.9302 50.1865 56.0716Z" fill="#003366"/>
<path d="M62.0141 46.7885C62.0141 46.7885 61.695 49.0358 63.9269 49.4343C64.2131 46.6744 62.0141 46.7885 62.0141 46.7885Z" fill="#003366"/>
<path d="M61.7945 46.5506C61.6166 43.7733 59.4737 44.2588 59.4737 44.2588C59.4737 44.2588 59.5298 46.5273 61.7945 46.5506Z" fill="#003366"/>
<path d="M63.1932 43.6187C63.1932 43.6187 62.0328 45.5643 63.9262 46.7982C65.2665 44.3594 63.1932 43.6187 63.1932 43.6187Z" fill="#003366"/>
<path d="M60.0935 43.5759C61.3506 41.0927 59.2542 40.4235 59.2542 40.4235C59.2542 40.4235 58.1537 42.4078 60.0935 43.5759Z" fill="#003366"/>
<path d="M61.82 38.1281C61.82 38.1281 60.1568 39.6753 61.6382 41.3849C63.6032 39.4161 61.82 38.1281 61.82 38.1281Z" fill="#003366"/>
<path d="M52.8196 48.1828C52.8196 48.1828 50.9223 49.4303 52.1001 51.3662C54.3648 49.7513 52.8196 48.1828 52.8196 48.1828Z" fill="#003366"/>
<path d="M44.9581 57.7038C47.2228 56.087 45.6756 54.5243 45.6756 54.5243C45.6756 54.5243 43.7803 55.7679 44.9581 57.7038Z" fill="#003366"/>
<path d="M49.4261 59.1659C49.4261 59.1659 48.0162 57.3885 46.1924 58.7307C48.0007 60.8369 49.4261 59.1659 49.4261 59.1659Z" fill="#003366"/>
<path d="M46.9718 62.0883C46.9718 62.0883 47.5985 59.9068 45.4459 59.2028C44.7826 61.9046 46.9718 62.0883 46.9718 62.0883Z" fill="#003366"/>
<path d="M64.1074 40.0504C64.1074 40.0504 62.7768 41.8877 64.5619 43.2821C66.1169 40.9671 64.1074 40.0504 64.1074 40.0504Z" fill="#003366"/>
<path d="M65.4322 44.9453C67.9773 43.8217 66.786 41.9747 66.786 41.9747C66.786 41.9747 64.6721 42.8121 65.4322 44.9453Z" fill="#003366"/>
<path d="M65.7211 40.5995C66.8622 38.0601 64.7367 37.4877 64.7367 37.4877C64.7367 37.4877 63.7291 39.5184 65.7211 40.5995Z" fill="#003366"/>
<path d="M67.3835 41.1799C69.7043 39.6482 68.219 38.0255 68.219 38.0255C68.219 38.0255 66.2792 39.1917 67.3835 41.1799Z" fill="#003366"/>
<path d="M69.4934 37.6308C69.4934 37.6308 68.8397 39.8046 70.9845 40.5318C71.6846 37.8416 69.4934 37.6308 69.4934 37.6308Z" fill="#003366"/>
<path d="M39.4906 4.38142C37.7152 5.7913 39.0632 7.617 39.0632 7.617C39.0632 7.617 41.0553 6.68288 39.4906 4.38142Z" fill="#003366"/>
<path d="M39.7514 9.57442C39.7514 9.57442 41.9446 9.40616 41.2986 6.70049C39.1383 7.389 39.7514 9.57442 39.7514 9.57442Z" fill="#003366"/>
<path d="M44.4588 7.54163C44.4588 7.54163 46.2207 6.22458 44.2229 4.28864C42.7647 6.02538 44.4588 7.54163 44.4588 7.54163Z" fill="#003366"/>
<path d="M42.4564 11.9202C42.4564 11.9202 44.2396 10.6303 42.263 8.66338C40.7854 10.3788 42.4564 11.9202 42.4564 11.9202Z" fill="#003366"/>
<path d="M48.6149 2.02019C46.5359 2.9195 47.3617 5.03337 47.3617 5.03337C47.3617 5.03337 49.5278 4.6485 48.6149 2.02019Z" fill="#003366"/>
<path d="M46.2101 3.81684C46.2101 3.81684 47.5504 2.07623 45.102 0.747574C44.1756 2.81309 46.2101 3.81684 46.2101 3.81684Z" fill="#003366"/>
<path d="M50.5414 3.76669C48.2786 3.87113 48.3018 6.13971 48.3018 6.13971C48.3018 6.13971 50.466 6.54779 50.5414 3.76669Z" fill="#003366"/>
<path d="M53.2015 3.15917C51.3468 4.45882 52.5826 6.36768 52.5826 6.36768C52.5826 6.36768 54.6269 5.54766 53.2015 3.15917Z" fill="#003366"/>
<path d="M55.84 4.96375C53.5753 4.9154 53.4457 7.18011 53.4457 7.18011C53.4457 7.18011 55.5751 7.73517 55.84 4.96375Z" fill="#003366"/>
<path d="M49.4228 7.19559C47.1755 6.9229 46.8215 9.16441 46.8215 9.16441C46.8215 9.16441 48.8851 9.9264 49.4228 7.19559Z" fill="#003366"/>
<path d="M57.1407 16.4246C54.8915 16.1519 54.5395 18.3934 54.5395 18.3934C54.5395 18.3934 56.6031 19.1574 57.1407 16.4246Z" fill="#003366"/>
<path d="M50.429 10.286C50.429 10.286 52.5796 9.82184 51.5701 7.22835C49.5258 8.20308 50.429 10.286 50.429 10.286Z" fill="#003366"/>
<path d="M49.2573 9.63995C47.215 10.6224 48.1337 12.6995 48.1337 12.6995C48.1337 12.6995 50.2746 12.2315 49.2573 9.63995Z" fill="#003366"/>
<path d="M47.6382 14.9665C47.6382 14.9665 48.5801 12.9764 45.9093 12.197C45.4374 14.4134 47.6382 14.9665 47.6382 14.9665Z" fill="#003366"/>
<path d="M47.6834 21.1397C47.6834 21.1397 47.0065 19.0452 44.5271 20.312C45.703 22.2479 47.6834 21.1397 47.6834 21.1397Z" fill="#003366"/>
<path d="M46.6137 18.5171C46.6137 18.5171 47.9346 16.7572 45.4745 15.4595C44.5675 17.5347 46.6137 18.5171 46.6137 18.5171Z" fill="#003366"/>
<path d="M50.8733 13.9415C50.8733 13.9415 52.9775 13.2936 51.7455 10.7987C49.7941 11.9475 50.8733 13.9415 50.8733 13.9415Z" fill="#003366"/>
<path d="M52.823 9.26885C51.7902 11.2841 53.7706 12.3903 53.7706 12.3903C53.7706 12.3903 55.1979 10.7077 52.823 9.26885Z" fill="#003366"/>
<path d="M55.3511 10.5743C55.3511 10.5743 57.492 10.0676 56.4341 7.49536C54.4073 8.50878 55.3511 10.5743 55.3511 10.5743Z" fill="#003366"/>
<path d="M59.5143 7.95949C57.3985 8.7679 58.1334 10.9166 58.1334 10.9166C58.1334 10.9166 60.3169 10.6226 59.5143 7.95949Z" fill="#003366"/>
<path d="M54.68 16.4961C54.68 16.4961 56.3664 15.0805 54.2642 13.2586C52.9104 15.0708 54.68 16.4961 54.68 16.4961Z" fill="#003366"/>
<path d="M54.3554 20.8128C54.3554 20.8128 55.1426 18.7569 52.4214 18.1864C52.1178 20.4318 54.3554 20.8128 54.3554 20.8128Z" fill="#003366"/>
<path d="M8.70716 42.3944C10.6605 41.2475 9.58326 39.2516 9.58326 39.2516C9.58326 39.2516 7.47907 39.8976 8.70716 42.3944Z" fill="#003366"/>
<path d="M3.31003 30.9877C4.01401 33.1422 6.19363 32.5137 6.19363 32.5137C6.19363 32.5137 6.01183 30.3205 3.31003 30.9877Z" fill="#003366"/>
<path d="M2.4882 32.4981C2.4882 32.4981 3.38558 30.4887 0.697315 29.7692C0.283438 31.9952 2.4882 32.4981 2.4882 32.4981Z" fill="#003366"/>
<path d="M4.99118 28.6667C4.88674 30.9295 7.14952 31.1229 7.14952 31.1229C7.14952 31.1229 7.75487 28.9955 4.99118 28.6667Z" fill="#003366"/>
<path d="M7.9974 27.4367C7.9974 27.4367 7.37465 25.3247 4.86432 26.5238C5.98797 28.4907 7.9974 27.4367 7.9974 27.4367Z" fill="#003366"/>
<path d="M8.89245 26.6516C8.89245 26.6516 9.64091 24.5822 6.90817 24.062C6.64901 26.3132 8.89245 26.6516 8.89245 26.6516Z" fill="#003366"/>
<path d="M5.45182 24.6227C5.45182 24.6227 5.83862 22.4586 3.06332 22.4005C3.18323 24.6614 5.45182 24.6227 5.45182 24.6227Z" fill="#003366"/>
<path d="M7.93906 22.7371C7.93906 22.7371 9.07432 20.8515 6.49436 19.8129C5.80392 21.9693 7.93906 22.7371 7.93906 22.7371Z" fill="#003366"/>
<path d="M10.3418 25.7793C10.3418 25.7793 11.773 24.1083 9.39997 22.6539C8.36335 24.6672 10.3418 25.7793 10.3418 25.7793Z" fill="#003366"/>
<path d="M10.8923 21.5884C11.0857 23.8435 13.3601 23.7158 13.3601 23.7158C13.3601 23.7158 13.6734 21.542 10.8923 21.5884Z" fill="#003366"/>
<path d="M16.7805 28.1157C16.7805 28.1157 15.2449 26.5395 13.5855 28.7733C15.4983 29.9879 16.7805 28.1157 16.7805 28.1157Z" fill="#003366"/>
<path d="M19.5251 27.6418C19.5251 27.6418 19.2176 25.4622 16.5584 26.288C17.3823 28.3941 19.5251 27.6418 19.5251 27.6418Z" fill="#003366"/>
<path d="M17.9737 31.332C17.9737 31.332 17.3103 29.2336 14.8232 30.481C15.9855 32.4266 17.9737 31.332 17.9737 31.332Z" fill="#003366"/>
<path d="M16.7104 25.0232C16.7104 25.0232 16.8342 22.8262 14.0666 23.1124C14.4631 25.3423 16.7104 25.0232 16.7104 25.0232Z" fill="#003366"/>
<path d="M16.4474 22.4431C17.7006 24.3307 19.6346 23.1432 19.6346 23.1432C19.6346 23.1432 18.8726 21.0796 16.4474 22.4431Z" fill="#003366"/>
<path d="M15.7794 20.3835C15.7794 20.3835 14.7041 18.4611 12.5206 20.1901C14.0523 21.8553 15.7794 20.3835 15.7794 20.3835Z" fill="#003366"/>
<path d="M9.83915 31.1075C9.83915 31.1075 10.2259 28.9414 7.45065 28.8834C7.56669 31.1462 9.83915 31.1075 9.83915 31.1075Z" fill="#003366"/>
<path d="M10.7115 29.2413C10.7115 29.2413 12.8776 28.8545 11.955 26.2243C9.87987 27.1294 10.7115 29.2413 10.7115 29.2413Z" fill="#003366"/>
<path d="M13.3753 32.4245C13.3753 32.4245 14.8064 30.7516 12.4334 29.2992C11.3891 31.3163 13.3753 32.4245 13.3753 32.4245Z" fill="#003366"/>
<path d="M15.3749 26.8469C15.3749 26.8469 15.6882 24.6673 12.9071 24.7195C13.1082 26.9688 15.3749 26.8469 15.3749 26.8469Z" fill="#003366"/>
<path d="M10.1091 32.1984C10.1091 32.1984 8.21182 31.0825 7.20807 33.6721C9.36255 34.3413 10.1091 32.1984 10.1091 32.1984Z" fill="#003366"/>
<path d="M0 34.138C1.37701 35.9367 3.22785 34.6215 3.22785 34.6215C3.22785 34.6215 2.3266 32.614 0 34.138Z" fill="#003366"/>
<path d="M72.3778 33.1635C72.3778 33.1635 71.1865 35.0975 73.0721 36.3508C74.4356 33.9294 72.3778 33.1635 72.3778 33.1635Z" fill="#003366"/>
<path d="M72.6562 31.3705C72.6562 31.3705 72.84 33.6333 75.1028 33.5289C74.774 30.7671 72.6562 31.3705 72.6562 31.3705Z" fill="#003366"/>
<path d="M73.4005 29.4058C73.4005 29.4058 74.1741 31.5332 76.3247 30.8543C75.2881 28.2724 73.4005 29.4058 73.4005 29.4058Z" fill="#003366"/>
<path d="M68.65 34.0067C68.65 34.0067 68.3715 36.2598 70.6092 36.6176C70.8451 33.8443 68.65 34.0067 68.65 34.0067Z" fill="#003366"/>
<path d="M70.345 27.172C70.345 27.172 72.6059 26.9631 72.4724 24.7003C69.7184 25.062 70.345 27.172 70.345 27.172Z" fill="#003366"/>
<path d="M74.4606 23.4799C72.2172 25.1277 73.7856 26.6749 73.7856 26.6749C73.7856 26.6749 75.6636 25.3984 74.4606 23.4799Z" fill="#003366"/>
<path d="M68.948 26.2184C68.948 26.2184 70.9864 25.2224 70.0658 23.153C67.6135 24.4681 68.948 26.2184 68.948 26.2184Z" fill="#003366"/>
<path d="M66.8201 23.0988C66.8201 23.0988 69.0752 23.3502 69.4078 21.1106C66.6325 20.9056 66.8201 23.0988 66.8201 23.0988Z" fill="#003366"/>
<path d="M61.2688 25.0599C61.2688 25.0599 63.5239 25.3113 63.8565 23.0717C61.089 22.8667 61.2688 25.0599 61.2688 25.0599Z" fill="#003366"/>
<path d="M65.7005 22.6948C65.7005 22.6948 67.6674 21.5615 66.6075 19.5598C64.25 21.0373 65.7005 22.6948 65.7005 22.6948Z" fill="#003366"/>
<path d="M63.7687 19.1573C62.088 21.3737 64.0298 22.4084 64.0298 22.4084C64.0298 22.4084 65.4687 20.6542 63.7687 19.1573Z" fill="#003366"/>
<path d="M65.8822 30.1038C64.2015 32.3202 66.1433 33.3568 66.1433 33.3568C66.1433 33.3568 67.5822 31.6007 65.8822 30.1038Z" fill="#003366"/>
<path d="M60.6826 27.4756C60.6826 27.4756 62.868 28.0867 63.5565 25.9284C60.8508 25.2805 60.6826 27.4756 60.6826 27.4756Z" fill="#003366"/>
<path d="M60.4824 31.3434C60.4824 31.3434 62.7317 31.6393 63.1069 29.4094C60.3354 29.1483 60.4824 31.3434 60.4824 31.3434Z" fill="#003366"/>
<path d="M58.5071 28.4558C58.5071 28.4558 58.6444 26.1892 56.3913 25.9706C56.3255 28.7517 58.5071 28.4558 58.5071 28.4558Z" fill="#003366"/>
<path d="M54.5742 27.8486C54.5742 27.8486 56.2549 26.3246 54.7928 24.5937C52.8046 26.5393 54.5742 27.8486 54.5742 27.8486Z" fill="#003366"/>
<path d="M67.8585 24.2478C65.2882 25.3134 66.4428 27.1875 66.4428 27.1875C66.4428 27.1875 68.5683 26.3984 67.8585 24.2478Z" fill="#003366"/>
<path d="M65.7315 18.8942C65.7315 18.8942 65.7315 16.6256 63.4745 16.5386C63.5693 19.3255 65.7315 18.8942 65.7315 18.8942Z" fill="#003366"/>
<path d="M57.64 33.0764C57.64 33.0764 59.0789 31.3223 57.3789 29.8234C55.6982 32.0417 57.64 33.0764 57.64 33.0764Z" fill="#003366"/>
<path d="M59.8892 26.8102C59.8892 26.8102 61.1599 24.9285 59.3284 23.594C57.8605 25.9573 59.8892 26.8102 59.8892 26.8102Z" fill="#003366"/>
<path d="M69.489 29.0187C67.6014 26.9745 66.2418 28.7054 66.2418 28.7054C66.2418 28.7054 67.7174 30.4286 69.489 29.0187Z" fill="#003366"/>
<path d="M73.8985 27.601C71.1774 27.0208 71.0691 29.2275 71.0691 29.2275C71.0691 29.2275 73.2758 29.7787 73.8985 27.601Z" fill="#003366"/>
<path d="M19.9461 19.1632C19.9461 19.1632 20.4335 17.0164 17.6562 16.8424C17.6795 19.1051 19.9461 19.1632 19.9461 19.1632Z" fill="#003366"/>
<path d="M16.7722 20.2249C18.0061 22.1241 19.9517 20.9579 19.9517 20.9579C19.9517 20.9579 19.211 18.8847 16.7722 20.2249Z" fill="#003366"/>
<path d="M39.5155 38.0507C39.5155 38.0507 39.8288 35.871 37.0477 35.9233C37.2508 38.1725 39.5155 38.0507 39.5155 38.0507Z" fill="#003366"/>
<path d="M29.8381 47.2334C29.8381 47.2334 30.1514 45.0557 27.3684 45.106C27.5715 47.3552 29.8381 47.2334 29.8381 47.2334Z" fill="#003366"/>
<path d="M42.9359 42.4447C42.9359 42.4447 41.4003 40.8685 39.741 43.1023C41.6537 44.3149 42.9359 42.4447 42.9359 42.4447Z" fill="#003366"/>
<path d="M45.6765 41.9748C45.6765 41.9748 45.3709 39.7952 42.7097 40.6113C43.5336 42.7271 45.6765 41.9748 45.6765 41.9748Z" fill="#003366"/>
<path d="M40.222 37.4414C40.6088 39.6713 42.8658 39.3522 42.8658 39.3522C42.8658 39.3522 42.9896 37.1552 40.222 37.4414Z" fill="#003366"/>
<path d="M45.79 37.4723C45.79 37.4723 45.028 35.4068 42.6028 36.7703C43.856 38.6656 45.79 37.4723 45.79 37.4723Z" fill="#003366"/>
<path d="M38.676 34.5151C40.2058 36.1841 41.9329 34.7085 41.9329 34.7085C41.9329 34.7085 40.8575 32.79 38.676 34.5151Z" fill="#003366"/>
<path d="M13.7585 18.1652C13.7585 18.1652 12.6851 16.2428 10.5016 17.9718C12.0314 19.6311 13.7585 18.1652 13.7585 18.1652Z" fill="#003366"/>
<path d="M38.8753 30.45C36.8001 31.3551 37.6317 33.467 37.6317 33.467C37.6317 33.467 39.7978 33.0764 38.8753 30.45Z" fill="#003366"/>
<path d="M41.5303 41.18C41.5303 41.18 41.8436 39.0023 39.0625 39.0526C39.2656 41.296 41.5303 41.18 41.5303 41.18Z" fill="#003366"/>
<path d="M44.1612 29.6919C44.1612 29.6919 45.515 27.9513 43.0627 26.6188C42.1382 28.6824 44.1612 29.6919 44.1612 29.6919Z" fill="#003366"/>
<path d="M46.103 35.2867C46.103 35.2867 45.3623 33.2135 42.9235 34.5518C44.1574 36.4529 46.103 35.2867 46.103 35.2867Z" fill="#003366"/>
<path d="M35.9955 31.4499C36.4461 29.2297 34.2413 28.6978 34.2413 28.6978C34.2413 28.6978 33.3169 30.6956 35.9955 31.4499Z" fill="#003366"/>
<path d="M26.1714 18.6796C25.7189 20.8979 27.9236 21.4317 27.9236 21.4317C27.9236 21.4317 28.85 19.4358 26.1714 18.6796Z" fill="#003366"/>
<path d="M23.049 20.7103C23.049 20.7103 25.2305 20.9965 25.1512 18.2155C22.8981 18.4456 23.049 20.7103 23.049 20.7103Z" fill="#003366"/>
<path d="M26.69 26.3363C28.1734 28.0479 29.941 26.6245 29.941 26.6245C29.941 26.6245 28.9218 24.6731 26.69 26.3363Z" fill="#003366"/>
<path d="M37.2757 28.8023C37.2757 28.8023 37.6084 26.6265 34.8273 26.6459C35.0091 28.899 37.2757 28.8023 37.2757 28.8023Z" fill="#003366"/>
<path d="M36.5009 34.4397C36.5009 34.4397 36.4699 32.2388 33.7294 32.7184C34.2826 34.9155 36.5009 34.4397 36.5009 34.4397Z" fill="#003366"/>
<path d="M56.1609 33.8191C53.9116 34.086 54.0992 36.3449 54.0992 36.3449C54.0992 36.3449 56.2866 36.5983 56.1609 33.8191Z" fill="#003366"/>
<path d="M51.9099 30.9953C51.9099 30.9953 50.9855 32.9931 53.6641 33.7474C54.1166 31.5272 51.9099 30.9953 51.9099 30.9953Z" fill="#003366"/>
<path d="M54.5537 30.3185C54.5537 30.3185 54.8864 28.1428 52.1053 28.1621C52.2871 30.421 54.5537 30.3185 54.5537 30.3185Z" fill="#003366"/>
<path d="M52.0011 34.2987C50.5971 36.076 52.3261 37.5459 52.3261 37.5459C52.3261 37.5459 54.0551 36.1804 52.0011 34.2987Z" fill="#003366"/>
<path d="M28.7753 21.0508C28.5142 23.302 30.7576 23.6405 30.7576 23.6405C30.7576 23.6405 31.508 21.5711 28.7753 21.0508Z" fill="#003366"/>
<path d="M41.1238 12.5372C41.1238 12.5372 40.9864 10.3421 38.273 10.9513C38.9287 13.1193 41.1238 12.5372 41.1238 12.5372Z" fill="#003366"/>
<path d="M28.1373 17.8036C29.1237 19.8439 31.2008 18.9272 31.2008 18.9272C31.2008 18.9272 30.727 16.7785 28.1373 17.8036Z" fill="#003366"/>
<path d="M14.8852 15.9257C14.626 18.1768 16.8694 18.5153 16.8694 18.5153C16.8694 18.5153 17.6198 16.4459 14.8852 15.9257Z" fill="#003366"/>
<path d="M17.5741 15.2024C17.5741 15.2024 17.0964 13.0537 14.5107 14.0787C15.4893 16.1172 17.5741 15.2024 17.5741 15.2024Z" fill="#003366"/>
<path d="M25.863 23.4257C23.6138 23.6964 23.8033 25.9573 23.8033 25.9573C23.8033 25.9573 25.9906 26.2048 25.863 23.4257Z" fill="#003366"/>
<path d="M25.4357 27.667C23.8633 29.2974 25.4357 30.9316 25.4357 30.9316C25.4357 30.9316 27.2904 29.7422 25.4357 27.667Z" fill="#003366"/>
<path d="M28.9603 25.0038C28.9603 25.0038 29.8867 23.0079 27.2081 22.2517C26.7536 24.47 28.9603 25.0038 28.9603 25.0038Z" fill="#003366"/>
<path d="M65.7344 13.6512C65.7344 13.6512 63.5799 13.2083 63.4581 15.9894C65.7344 15.9198 65.7344 13.6512 65.7344 13.6512Z" fill="#003366"/>
<path d="M69.1431 16.2931C69.1431 16.2931 66.9867 15.8521 66.8668 18.6313C69.1315 18.5636 69.1431 16.2931 69.1431 16.2931Z" fill="#003366"/>
<path d="M56.3117 24.6072C58.5764 24.5395 58.588 22.2709 58.588 22.2709C58.588 22.2709 56.4335 21.828 56.3117 24.6072Z" fill="#003366"/>
<path d="M63.2484 12.0401C63.2484 12.0401 62.1189 10.1506 59.9877 11.9415C61.5678 13.5641 63.2484 12.0401 63.2484 12.0401Z" fill="#003366"/>
<path d="M59.3349 17.0919C59.2788 19.3566 61.5435 19.4939 61.5435 19.4939C61.5435 19.4939 62.1025 17.3646 59.3349 17.0919Z" fill="#003366"/>
<path d="M60.9814 22.0815C60.9814 22.0815 61.2309 19.8942 58.4498 20.0218C58.7206 22.2711 60.9814 22.0815 60.9814 22.0815Z" fill="#003366"/>
<path d="M63.1674 14.2972C63.1674 14.2972 62.2004 12.3187 59.926 13.9104C61.361 15.6684 63.1674 14.2972 63.1674 14.2972Z" fill="#003366"/>
<path d="M40.6277 19.2193C40.6277 19.2193 39.6085 17.2679 37.3766 18.9312C38.86 20.6428 40.6277 19.2193 40.6277 19.2193Z" fill="#003366"/>
<path d="M42.0791 16.1732C42.0791 16.1732 42.8276 14.1019 40.0948 13.5817C39.8357 15.8328 42.0791 16.1732 42.0791 16.1732Z" fill="#003366"/>
<path d="M40.4725 17.7282C40.4725 17.7282 41.397 15.7323 38.7203 14.9761C38.2697 17.1983 40.4725 17.7282 40.4725 17.7282Z" fill="#003366"/>
<path d="M33.3215 7.78734C33.3215 7.78734 35.1259 6.52637 33.1919 4.52662C31.6834 6.21693 33.3215 7.78734 33.3215 7.78734Z" fill="#003366"/>
<path d="M61.027 10.6497C61.027 10.6497 62.8315 9.38873 60.8975 7.38897C59.3889 9.07542 61.027 10.6497 61.027 10.6497Z" fill="#003366"/>
<path d="M19.7364 12.1427C19.7364 12.1427 21.1695 10.4718 18.7965 9.01932C17.7579 11.0326 19.7364 12.1427 19.7364 12.1427Z" fill="#003366"/>
<path d="M27.6327 4.51685C26.041 6.12787 27.5979 7.77951 27.5979 7.77951C27.5979 7.77951 29.4584 6.61137 27.6327 4.51685Z" fill="#003366"/>
<path d="M24.5066 14.9664C24.8141 17.2098 27.073 16.9816 27.073 16.9816C27.073 16.9816 27.2819 14.7904 24.5066 14.9664Z" fill="#003366"/>
<path d="M24.1862 12.7501C24.1862 12.7501 25.6521 11.11 23.3101 9.60731C22.2309 11.5897 24.1862 12.7501 24.1862 12.7501Z" fill="#003366"/>
<path d="M22.1566 14.4906C21.4236 16.6335 23.5433 17.4458 23.5433 17.4458C23.5433 17.4458 24.7172 15.5872 22.1566 14.4906Z" fill="#003366"/>
<path d="M28.7653 11.1777C28.7653 11.1777 30.5214 9.84903 28.5158 7.91503C27.0692 9.66724 28.7653 11.1777 28.7653 11.1777Z" fill="#003366"/>
<path d="M30.4692 13.6281C30.4692 13.6281 32.6508 13.3457 31.8636 10.6787C29.744 11.4774 30.4692 13.6281 30.4692 13.6281Z" fill="#003366"/>
<path d="M31.7952 9.92831C31.7952 9.92831 32.5688 7.86667 29.8399 7.31548C29.5556 9.56279 31.7952 9.92831 31.7952 9.92831Z" fill="#003366"/>
<path d="M23.6013 7.21684C21.5687 6.21696 20.4934 8.21478 20.4934 8.21478C20.4934 8.21478 22.1915 9.61693 23.6013 7.21684Z" fill="#003366"/>
<path d="M18.7385 15.9721C18.7385 15.9721 20.9394 15.9856 20.5158 13.2355C18.3091 13.7441 18.7385 15.9721 18.7385 15.9721Z" fill="#003366"/>
<path d="M24.9888 2.8865C23.3971 4.49946 24.954 6.14916 24.954 6.14916C24.954 6.14916 26.8203 4.97909 24.9888 2.8865Z" fill="#003366"/>
<path d="M35.6255 7.39282C33.91 8.87427 35.3296 10.6439 35.3296 10.6439C35.3296 10.6439 37.2829 9.62853 35.6255 7.39282Z" fill="#003366"/>
<path d="M32.7684 9.43718C32.1127 11.6071 34.2614 12.3382 34.2614 12.3382C34.2614 12.3382 35.3696 10.4293 32.7684 9.43718Z" fill="#003366"/>
<path d="M49.3188 46.9336C49.2451 46.7196 49.0986 46.5382 48.9049 46.4211C48.5181 46.2432 48.0404 46.5236 47.7696 46.8582C46.9844 47.8252 46.6266 49.5658 46.7156 51.8866C47.9263 50.6198 48.3305 48.9489 49.0848 47.3707C49.1524 47.2315 49.2337 47.0825 49.3188 46.9336Z" fill="#003366"/>
<path d="M26.5359 38.1184C26.8299 38.2171 27.1013 38.3737 27.3338 38.5789C27.5663 38.7842 27.7553 39.034 27.8897 39.3136C27.8145 38.8162 27.6895 38.3277 27.5164 37.8554C27.0909 36.784 25.9692 35.7976 24.1938 34.9215C22.1592 33.9197 20.1324 34.7745 18.3512 35.8982C19.7166 35.7048 21.1091 36.1361 22.4938 36.4358C23.2674 36.6041 25.008 36.7124 25.536 37.4028C25.1356 37.5827 24.685 37.4454 24.3369 37.7026C24.8513 38.072 25.8899 37.8747 26.5359 38.1184Z" fill="#003366"/>
<path d="M41.0725 65.2679C40.7456 65.03 40.4053 64.7844 40.0687 64.5639C39.5292 64.21 38.7459 63.7555 38.1657 63.9005C38.0356 63.9381 37.9152 64.0031 37.8124 64.0911C37.7096 64.1792 37.627 64.2883 37.57 64.4111C37.249 64.9913 37.5197 66.1324 38.3301 67.6003C39.183 69.1475 41.293 70.8881 43.3295 71.3832C43.1098 70.797 42.9346 70.1951 42.8053 69.5826C41.6449 69.0353 39.8405 67.9233 39.9411 67.0375C39.9662 66.8248 40.1016 66.4747 40.7244 66.4747H40.7611C41.2059 66.4747 41.8751 66.6874 42.5636 66.9717C42.5636 66.7319 42.5636 66.4921 42.5481 66.2504C42.3621 66.1515 42.1814 66.0431 42.0066 65.9254C41.6894 65.7146 41.3761 65.4864 41.0725 65.2679Z" fill="#003366"/>
<path d="M27.9186 14.7729C29.2284 15.2325 30.351 16.1097 31.1135 17.2697L31.1677 17.3219L31.3611 17.525C31.5429 17.7184 31.7324 17.9021 31.9181 18.1052C32.0032 18.2 32.0921 18.2986 32.1811 18.3876C32.8889 19.1418 33.62 19.9212 33.6877 21.0255C33.7099 21.8356 33.4991 22.6351 33.0804 23.3289C32.7825 23.8318 32.3881 24.2709 31.92 24.6209C31.7719 24.7454 31.6312 24.8785 31.4984 25.0193C31.4114 25.1082 31.3243 25.1953 31.2354 25.2803C30.6165 26.375 29.868 27.4174 29.2646 28.4328C29.0308 28.8242 28.819 29.2284 28.6303 29.6435C28.6639 30.1498 28.7396 30.6524 28.8566 31.1462C29.0268 31.9765 29.3854 32.7566 29.9048 33.4264C30.6532 34.345 31.1967 35.0838 31.3669 36.2461C31.7227 38.6772 33.0031 40.352 35.1711 41.2281C35.8792 41.4891 36.6173 41.66 37.3681 41.7368C37.1399 41.0193 37.165 40.2863 37.2347 39.4256C36.8227 39.6306 36.1574 41.1218 35.9601 39.7738C35.8248 38.8512 36.256 38.4026 35.701 37.453C35.284 36.785 34.8321 36.1394 34.3472 35.519L33.8598 35.0393C32.506 33.7126 30.9588 32.2079 31.0536 30.1521C31.0845 29.4945 31.3572 28.1407 32.1656 27.7249C32.2826 27.6564 32.4152 27.6192 32.5507 27.6168C32.6862 27.6145 32.82 27.647 32.9392 27.7114C33.0275 27.7631 33.1071 27.8284 33.1752 27.9048C33.3663 27.2934 33.6149 26.7015 33.9178 26.1371C34.353 25.3248 34.8075 24.2959 35.8016 24.1528C36.5945 24.0368 38.6117 25.3403 39.101 24.4004C38.8515 24.3308 38.5614 24.381 38.3274 24.3017C38.0044 24.1954 37.8574 23.9149 37.4783 23.8743C37.8091 22.6694 39.6734 22.6501 40.6172 22.244C41.9536 21.6638 43.0695 20.4357 43.7271 19.165C44.8217 17.0512 44.433 14.947 44.8275 12.719C45.1351 10.9784 46.6687 9.21846 46.6223 7.43724C45.3807 8.69628 43.9882 10.3653 43.4795 12.0788C42.8587 14.1792 43.0444 16.5793 41.855 18.4785C40.9151 19.9812 39.5535 20.4473 37.9348 20.8747C37.2269 21.0681 36.7744 21.1242 36.7628 20.31C36.7847 19.6798 36.8821 19.0545 37.0529 18.4475C37.3159 17.3084 37.6853 16.2041 38.0005 15.0804C37.3256 15.0611 36.5539 16.3414 36.3682 16.881C36.0917 17.6875 36.1845 18.5539 36.0452 19.3836C35.9427 19.9986 35.6082 20.9443 35.0512 21.2944C34.7247 20.2803 34.5704 19.2186 34.5947 18.1536C34.6291 17.0032 35.0047 15.8891 35.6739 14.9528C36.2793 14.154 36.9484 13.2276 37.2501 12.2684C37.7356 10.7212 37.8303 8.73303 37.5924 7.13747C36.8981 7.80277 37.0625 9.3403 36.9678 10.2319C36.8878 11.2319 36.4358 12.1656 35.701 12.8486C35.055 13.4288 34.3878 13.8523 33.7941 14.4925C33.152 15.1868 33.1114 15.7554 32.7981 16.558C32.3842 16.5464 31.5893 15.2525 31.2044 14.9431C29.8139 13.8195 27.7561 13.3069 26.6885 11.8487C26.1942 11.109 25.7775 10.3202 25.445 9.49502C25.1375 8.79878 24.8494 7.58615 24.2189 7.13746C24.1512 8.21277 24.3503 9.12176 24.8338 10.0984C25.443 11.3246 26.8123 11.9763 27.2243 13.2837C27.2407 13.3239 27.2432 13.3685 27.2313 13.4102C27.2193 13.4519 26.3491 13.2583 26.3139 13.2837C24.8595 13.0903 24.4509 13.8813 23.07 13.1948C22.4067 12.8621 21.7762 11.9918 20.991 12.0344C21.9502 14.6569 25.7989 14.0303 27.9186 14.7729Z" fill="#003366"/>
<path d="M40.5417 66.877C40.3696 66.9137 40.3367 66.9969 40.3271 67.082C40.2613 67.6448 41.6596 68.5789 42.7214 69.1185C42.6384 68.5508 42.59 67.9786 42.5763 67.405C41.8801 67.0955 41.1858 66.8596 40.7351 66.8596C40.6703 66.8591 40.6055 66.8649 40.5417 66.877Z" fill="#003366"/>
<path d="M57.2218 41.1199C56.777 41.2476 56.3321 41.3462 55.926 41.4352L55.6591 41.4932C55.1582 41.6054 54.6438 41.706 54.1003 41.8104C52.1083 42.1972 50.0486 42.5956 48.4917 43.6167C47.0296 44.5702 46.6486 46.131 46.2792 47.6607C46.025 48.8072 45.8549 49.9707 45.7706 51.142C45.7474 51.3992 45.7299 51.6525 45.7106 51.9156C45.6893 52.2153 45.6622 52.5228 45.6332 52.8323C45.8402 52.6737 46.0471 52.5132 46.2483 52.3468C46.2831 52.3198 46.314 52.2888 46.3469 52.2598C46.1999 49.6354 46.5751 47.742 47.4705 46.6319C47.8438 46.1677 48.482 45.8196 49.068 46.0845C49.2762 46.1872 49.4472 46.3521 49.5573 46.5564C49.714 46.3031 49.8784 46.0517 50.0254 45.8118C50.4992 45.0479 51.1529 44.5586 51.9187 44.0848C53.7657 42.9418 54.9822 43.6419 56.833 44.0016C56.3824 43.4214 55.7887 43.2454 55.2375 42.8528C55.8003 42.1256 56.5333 41.646 57.2218 41.1199Z" fill="#003366"/>
<path d="M45.813 30.3881C44.5385 29.7615 43.409 31.1172 42.0243 30.682C41.3706 30.477 40.9238 30.1676 40.6376 29.5719C40.4732 29.2315 40.4829 28.661 40.1135 28.543C39.8872 32.2969 43.9447 31.2758 45.9019 33.1169C47.6 34.7183 47.6851 37.6444 47.2673 39.8183C47.0739 40.7853 46.7529 41.5995 45.8826 42.1526C45.4648 42.4195 44.9562 42.4795 44.5443 42.7444C44.0008 43.0925 43.8325 43.7424 43.3645 44.1736C41.4847 45.9026 39.2528 44.6339 37.9358 42.8527C37.7714 42.6335 37.6307 42.3976 37.5161 42.1487C36.6619 42.0686 35.8216 41.8794 35.0154 41.5859C32.712 40.6557 31.3505 38.8783 30.9734 36.3022C30.8186 35.2385 30.3042 34.5404 29.5944 33.6701C29.0375 32.9555 28.6524 32.1224 28.4688 31.2352C28.4282 31.063 28.3625 30.7594 28.3102 30.3958C28.0217 31.1624 27.8471 31.9671 27.7919 32.7843C28.5703 33.6967 29.2269 34.7063 29.7453 35.7878C30.031 36.428 30.2312 37.1029 30.3409 37.7953C30.5343 38.7217 30.7045 39.5959 31.3718 40.4101C32.186 41.4061 33.2826 41.8238 34.443 42.2648C34.7795 42.3924 35.1276 42.5259 35.468 42.6729C37.3034 43.4677 39.1561 45.2045 40.1889 47.0979C41.4528 49.3751 42.1095 51.9393 42.0958 54.5438C42.0958 55.0659 42.0687 55.561 42.0436 56.0407C42.0339 56.2051 42.0262 56.3695 42.0185 56.5338C42.061 56.4352 42.1093 56.3404 42.1577 56.236C42.765 55.0234 43.8693 54.1357 44.9272 53.335L45.2038 53.1261C45.2521 52.7065 45.285 52.279 45.314 51.8632C45.3333 51.6079 45.3527 51.3507 45.3759 51.0896C45.4126 50.6661 45.4571 50.2135 45.5132 49.7494C44.4534 48.1751 44.2677 46.6376 44.9504 45.0478C45.3372 44.164 46.0102 43.3942 46.6678 42.6477C47.6986 41.4873 48.6714 40.3811 48.6018 38.8822C48.5285 37.9597 48.3719 37.0457 48.1338 36.1514C47.8437 34.9194 47.5439 33.6372 47.6754 32.3414C47.7856 31.2313 48.2227 30.1831 49.093 28.9414C49.3818 28.5076 49.5817 28.0209 49.6813 27.5093C49.7809 26.9978 49.7781 26.4716 49.6732 25.9611C49.4944 26.5782 49.199 27.1553 48.8029 27.6611C48.4161 28.1717 46.6465 30.6105 46.4589 28.8912C45.9541 29.2219 45.8323 29.8079 45.813 30.3881Z" fill="#003366"/>
<path d="M32.1011 57.5898C32.2733 57.9263 32.4473 58.2667 32.6098 58.6148C32.7113 58.8529 32.796 59.0978 32.8631 59.3478C32.9373 59.6426 33.043 59.9285 33.1784 60.2007C33.4453 59.7172 33.4607 58.5993 33.3466 57.6594C33.2403 56.7794 32.8264 55.9188 32.3796 55.2225C32.3426 55.9461 32.2626 56.6669 32.1398 57.3809C32.1295 57.4505 32.1166 57.5201 32.1011 57.5898Z" fill="#003366"/>
<path d="M34.5319 61.2335C34.0948 65.3897 37.4194 69.5788 40.9141 71.8841C41.8556 72.5028 42.8646 73.0122 43.9215 73.4023C44.0278 73.4429 44.1477 73.4835 44.2754 73.5241C43.9988 72.9575 43.7377 72.3966 43.5018 71.8222C41.2371 71.3987 38.9143 69.453 37.9938 67.7879C37.3729 66.6642 36.7367 65.1344 37.2318 64.2274C37.3136 64.057 37.431 63.9061 37.5762 63.785C37.7213 63.6639 37.8907 63.5753 38.073 63.5253C38.7925 63.3474 39.6319 63.8135 40.2836 64.2409C40.6279 64.4653 40.9702 64.7147 41.3009 64.9546C41.6026 65.1712 41.912 65.3974 42.2234 65.6044C42.3298 65.6759 42.4342 65.7398 42.5387 65.7978C42.5256 65.1852 42.4733 64.5741 42.382 63.9682C41.3744 63.2468 40.5679 62.187 39.9084 61.2297C39.1348 60.106 38.6687 58.7348 38.3941 56.7815C38.2645 55.8667 38.4424 54.7256 38.63 53.5169C39.0168 51.0858 39.4036 48.5736 37.4812 47.3648C36.4949 46.7421 35.2862 46.4307 34.1161 46.129L33.5359 45.9762C32.6094 45.7346 31.7319 45.3341 30.9424 44.7926L31.0139 44.9299C30.9946 45.9723 30.8592 47.0225 30.9637 48.0591C30.9637 48.1094 30.9791 48.1577 30.9849 48.2061C30.8993 48.1882 30.8128 48.1747 30.7258 48.1655C29.695 48.0823 28.7434 48.0359 27.7609 47.7458C26.2563 47.299 25.4401 46.626 25.21 45.0537C24.4983 45.2606 25.1442 46.4578 25.3241 46.9664C23.4636 46.8252 22.3283 43.4659 22.0866 42.0405C21.1544 42.0927 22.4424 44.4986 22.6455 45.0343C23.1135 46.276 23.7228 47.2952 24.9025 48.0572C25.9062 48.707 27.115 48.6973 28.1361 49.1866C29.2737 49.7751 30.3242 50.5184 31.2576 51.3953C31.5577 51.6759 31.8286 51.9863 32.066 52.3216C32.0757 52.3623 32.0854 52.4048 32.097 52.4454C33.1085 53.2674 33.9672 54.099 34.4893 55.6249C34.998 57.1141 34.7891 58.9824 34.6034 60.6321C34.5764 60.839 34.5532 61.0382 34.5319 61.2335ZM35.5453 48.4072C35.6152 48.3209 35.7037 48.2513 35.8041 48.2038C35.9045 48.1563 36.0144 48.1319 36.1255 48.1326C36.3564 48.1457 36.582 48.2066 36.7881 48.3115C36.9942 48.4163 37.1762 48.5629 37.3227 48.7418C37.9531 49.4651 37.9377 50.3586 37.87 50.9678C37.7791 51.7956 37.5721 52.2598 37.2182 52.428C37.1285 52.4719 37.0299 52.4944 36.9301 52.4938C36.7214 52.4822 36.5202 52.4118 36.3499 52.2907C35.7348 51.9039 35.2687 50.8402 35.1411 50.525C34.7891 49.6624 34.8955 49.088 35.5453 48.4072Z" fill="#003366"/>
<path d="M36.5494 51.9658C36.7602 52.0993 36.9362 52.1379 37.0503 52.0799C37.1644 52.0219 37.3946 51.7511 37.4855 50.9195C37.5764 50.0879 37.4352 49.4535 37.031 48.9855C36.8062 48.722 36.4865 48.558 36.1413 48.5291C36.0853 48.5277 36.0296 48.5392 35.9786 48.5627C35.9277 48.5861 35.8828 48.621 35.8474 48.6645L35.8358 48.678C35.2884 49.2582 35.2072 49.6663 35.4992 50.3896C35.7333 50.9737 36.1413 51.7028 36.5494 51.9658Z" fill="#003366"/>
<path d="M30.7811 61.6939C30.2763 64.4112 32.1601 66.8615 31.9995 69.5575C31.9338 70.6541 31.4986 71.9074 30.8972 73.0387C30.9881 73.1122 31.0693 73.1915 31.1486 73.2689C31.4 73.5145 31.6108 73.7253 32.0382 73.7234C32.6184 73.7234 33.2334 73.2747 33.686 72.5378C34.5021 71.2092 34.3958 69.5575 34.185 68.1167C33.9684 66.6333 33.6879 65.6296 32.8312 64.5601C31.8352 63.3107 31.3981 62.5448 31.2627 61.0247C31.2383 60.7379 31.2293 60.45 31.2356 60.1622C31.0402 60.6587 30.8882 61.1712 30.7811 61.6939Z" fill="#003366"/>
<path d="M50.5925 79.3339H50.5674C50.0858 79.2837 49.5849 79.2314 49.0918 79.1618C48.418 79.0371 47.7663 78.8135 47.1578 78.4984C46.9411 78.3998 46.7168 78.2954 46.4925 78.2045C44.8988 77.5469 43.6263 77.3903 42.6032 77.721C42.5228 77.7405 42.4472 77.776 42.3808 77.8254C42.5254 77.982 42.693 78.1157 42.8778 78.2219C43.2143 78.4462 43.576 78.6532 43.926 78.8543C44.0982 78.951 44.2684 79.0477 44.4366 79.1483C44.6049 79.2488 44.7345 79.3301 44.8814 79.4229C47.2893 79.6414 49.5927 80.5214 52.074 80.3648C51.9425 79.6801 51.2501 79.4732 50.5925 79.3339Z" fill="#003366"/>
<path d="M39.4864 78.9993C38.8385 78.5255 38.1694 78.0323 37.5022 77.5914C36.4887 76.9222 35.6919 76.6727 34.5683 76.6727H34.5567C33.0288 76.6727 31.9728 77.4135 30.855 78.1948C29.9982 78.7943 29.1144 79.4151 27.9888 79.6936C27.2365 79.887 26.4822 79.7343 25.7531 79.5931C25.2112 79.4661 24.656 79.4051 24.0995 79.4113C24.7491 79.5657 25.3772 79.7996 25.9697 80.1075C27.3912 80.8018 29.418 80.8811 30.9981 80.5968C32.8489 80.2738 34.3517 79.3707 36.2973 79.7459C37.4345 79.9644 38.5697 80.3164 39.7649 80.152C40.1043 80.1018 40.4392 80.0255 40.7667 79.9238C40.3316 79.6221 39.9081 79.3107 39.4864 78.9993Z" fill="#003366"/>
<path d="M57.4286 36.6815C56.4016 37.5905 55.1078 37.4358 53.9474 37.9754C54.1195 38.0044 54.2897 38.0411 54.4502 38.0759C54.6572 38.1223 54.8525 38.1649 55.0304 38.19C55.7785 38.3008 56.5422 38.1607 57.2023 37.7916C58.2041 37.1844 58.5058 36.051 58.3511 34.9332C58.2735 35.6109 57.9442 36.2349 57.4286 36.6815Z" fill="#003366"/>
<path d="M69.1901 31.5544C68.2018 32.0649 67.7047 32.8134 66.8828 33.4884C66.1885 34.0531 65.0242 34.1072 64.1578 34.2368C63.3474 34.3567 62.6686 34.6391 61.9511 34.8344C61.7577 33.9371 62.6879 33.4806 63.2333 32.9817C63.7947 32.4836 64.1981 31.8322 64.3937 31.1076C64.6645 30.2238 64.5446 29.3071 64.7186 28.4174C64.8502 27.7366 64.9585 27.0423 65.1054 26.3635C65.2679 25.6092 65.8655 24.8782 65.9835 24.1761C66.2252 22.7276 65.1035 24.7138 64.8946 25.089C64.3493 26.056 63.8657 26.9263 63.6782 28.0538C63.5002 29.1253 63.7149 30.3069 63.2604 31.33C62.8736 32.2003 62.0072 32.2371 61.2955 32.7515C60.8429 33.0784 60.0422 34.1401 59.58 33.6334C59.1739 33.1886 59.4891 31.8928 59.58 31.3822C59.6736 30.6496 59.8689 29.9336 60.1602 29.2548C60.2685 29.0247 61.162 27.5278 60.2994 28.0944C59.8914 28.3633 59.5665 29.5643 59.3092 30.0091C58.9012 30.7189 58.5356 31.4615 58.4409 32.2835C58.4014 32.7427 58.3917 33.2039 58.4119 33.6644C59.0656 35.2386 58.9515 37.1997 57.4178 38.13C56.6817 38.545 55.8286 38.7035 54.9925 38.5806C54.7991 38.5535 54.5806 38.5071 54.3756 38.4626C54.0492 38.3775 53.7147 38.3269 53.3777 38.3118C52.9193 38.6077 52.3913 38.9655 51.9117 38.979C51.0433 39.0061 50.7203 37.5865 50.4883 36.985C50.1401 36.0819 49.4439 35.0626 49.4052 34.084C49.3569 32.8966 49.7456 31.9296 50.4244 30.9258C51.0201 30.0439 51.1226 29.3921 51.3353 28.3691C51.7221 26.4989 53.0876 25.0484 54.5168 23.8841C56.2574 22.4626 57.6943 21.6271 58.027 19.2425C58.1309 18.2788 58.2996 17.3232 58.5318 16.3821C58.7252 15.6859 59.083 15.0593 59.0037 14.3166C58.5608 14.363 58.3964 15.0902 58.1005 15.3745C57.588 14.0323 58.1991 12.1215 57.5203 10.8547C56.7912 11.7115 57.1567 12.9338 57.3037 13.9627C57.4971 15.2643 57.6905 16.9101 57.3772 18.1923C57.045 19.4149 56.2575 20.464 55.1763 21.1243C54.3795 21.6329 53.3409 21.7374 52.6157 22.3214C52.2695 22.6019 51.7028 23.9615 51.3295 23.9769C50.8654 23.9963 50.6778 22.7875 50.6314 22.4665C50.378 20.7646 50.9679 19.6661 51.757 18.2233C52.1051 17.5831 53.5478 15.2836 52.6466 14.7266C52.2965 15.1231 52.2598 15.8213 52.0064 16.3125C51.7357 16.8366 51.2986 17.322 50.9679 17.8094C50.6372 18.2968 50.1769 18.7764 50.0009 19.3566C49.8674 19.8304 49.9545 20.4164 49.7127 20.8245C48.7999 20.2598 49.032 18.1169 49.1925 17.2524C49.413 16.0688 49.8752 14.6086 49.2776 13.4676C49.4458 14.9123 48.4556 16.6393 48.2738 18.0976C48.1183 19.3285 48.2117 20.5781 48.5485 21.7722C48.8502 22.8281 49.6238 23.7797 49.7649 24.8666C50.2716 26.1701 50.3606 27.8546 49.4207 29.1949C48.5891 30.3785 48.1733 31.3706 48.0669 32.4092C47.9431 33.6508 48.2351 34.8925 48.5175 36.0954C48.7619 37.0125 48.923 37.9498 48.9991 38.8958C49.0822 40.5513 48.0108 41.764 46.9742 42.9379C46.336 43.6593 45.6765 44.4058 45.3206 45.2336C44.7404 46.5642 44.8468 47.8599 45.6107 49.1809C45.6881 48.6509 45.7848 48.1133 45.9105 47.593C46.2973 45.9994 46.6976 44.3536 48.2854 43.315C49.9119 42.2533 52.0103 41.8471 54.0391 41.4545C54.5806 41.3501 55.0912 41.2495 55.5863 41.1393L55.8551 41.0813C56.6134 40.9334 57.3542 40.7072 58.0657 40.4063C58.2762 40.1986 58.4648 39.9698 58.6285 39.7236C59.7038 38.101 60.783 37.2307 62.7479 36.9115C63.4925 36.7916 64.4885 36.6679 65.1422 36.3139C66.0473 35.8266 66.7049 34.7358 67.376 33.9931C68.5364 32.7128 70.2673 31.9122 71.5786 30.7498C70.742 30.8787 69.934 31.1508 69.1901 31.5544Z" fill="#003366"/>
<path d="M56.6579 79.444C56.957 79.4311 57.2552 79.4027 57.5514 79.3589C57.2907 79.2055 57.0401 79.0356 56.801 78.8503C56.5301 78.6268 56.2719 78.3886 56.0274 78.1366C55.5864 77.7015 55.13 77.2528 54.6407 77.0516C53.9058 76.7538 53.1062 76.6512 52.3199 76.7538C51.6082 76.8524 50.9796 77.1406 50.3143 77.4539C50.0571 77.5738 49.7922 77.6976 49.5195 77.8098L49.2545 77.9239C48.9426 78.0737 48.615 78.1885 48.2778 78.2662C48.1541 78.2913 48.0071 78.3049 47.8639 78.3203L47.7344 78.3339C48.1813 78.5464 48.6559 78.6949 49.1443 78.7748C49.6336 78.8425 50.1287 78.8947 50.6083 78.945L50.7127 78.9566C51.1759 78.9932 51.6409 79.0029 52.1052 78.9856C52.5133 78.9856 52.9349 78.9721 53.3333 78.9972C53.7568 79.0336 54.1766 79.1047 54.5885 79.21C54.896 79.2796 55.2151 79.3512 55.5265 79.3898C55.9015 79.4389 56.2799 79.457 56.6579 79.444Z" fill="#003366"/>
<path d="M17.0106 36.3333C19.138 34.8576 21.6967 33.2563 24.3715 34.5733C26.2416 35.4939 27.4233 36.5499 27.8817 37.7122C28.1848 38.5611 28.3614 39.4499 28.4058 40.3502C28.8429 41.2108 29.3418 42.0173 29.8466 42.8644C30.0478 43.2009 30.2412 43.5342 30.4268 43.8643C30.45 43.8894 30.4694 43.9184 30.4945 43.9416C31.241 44.6727 32.386 45.2819 33.6334 45.6146L34.2136 45.7654C35.4107 46.0748 36.6504 46.394 37.6948 47.0496C39.8222 48.3937 39.3967 51.1535 39.0177 53.5884C38.8359 54.7682 38.6618 55.8802 38.7836 56.7389C39.0486 58.6285 39.4973 59.9474 40.2341 61.0208C40.7989 61.8389 41.4719 62.7343 42.2803 63.4074C42.2262 63.1502 42.172 62.8987 42.114 62.6512C42.1666 62.4338 42.2312 62.2194 42.3074 62.0091C42.7329 60.8738 43.3672 60.1292 44.3091 59.4059C44.9202 58.9379 45.6107 58.5743 46.1735 58.0521C46.303 57.9322 46.7749 57.6344 46.8097 57.4526C46.8639 57.1741 46.6009 57.2785 46.4113 57.3675C46.0385 57.5657 45.678 57.7866 45.3322 58.0289C44.752 58.3848 44.2143 58.7484 43.6767 59.1448C43.8159 58.4679 44.1234 57.4371 43.9803 57.0774C43.6438 57.6402 43.2802 58.6246 43.1371 58.9224C42.9978 59.2145 42.8802 59.5163 42.7851 59.8256C42.3983 60.108 42.0115 60.3594 41.6498 60.6243C41.4486 59.6842 41.4407 58.713 41.6266 57.7698C41.6073 57.1896 41.6266 56.6094 41.6672 56.0292C41.6924 55.5553 41.7195 55.0622 41.7195 54.5535C41.733 52.0138 41.0922 49.5135 39.8589 47.2933C38.8649 45.4695 37.0856 43.8005 35.3256 43.0385C34.993 42.8934 34.6487 42.7619 34.3161 42.6362C33.1557 42.1952 31.9624 41.7407 31.0824 40.6654C30.3553 39.7758 30.1599 38.8127 29.9723 37.8824C29.8664 37.2225 29.6759 36.579 29.4057 35.9678C28.9006 34.9158 28.2615 33.9336 27.5045 33.0455C26.466 32.6316 25.4352 32.1616 24.3599 32.152C24.1151 32.1491 23.8705 32.1594 23.6269 32.1829C23.5882 31.7439 23.6791 31.3068 23.8609 30.6357C23.3348 30.9606 22.9055 31.6975 22.4355 32.3763H22.335C21.8631 32.4227 20.8264 32.854 20.4242 32.326C20.0799 31.8754 20.4009 30.9858 20.5944 30.5274C20.84 29.9472 21.3447 29.7035 21.7548 29.2529C22.118 28.8666 22.3624 28.3838 22.4587 27.8623C22.5195 27.435 22.5279 27.0018 22.4839 26.5724C22.4742 26.3461 22.4703 26.1179 22.4684 25.8897C22.6915 25.2426 22.9771 24.6188 23.3213 24.0272C23.7955 23.2214 24.0446 22.303 24.0427 21.368C23.9324 22.0855 23.4238 22.7218 22.9886 23.2846C22.7443 23.6165 22.5621 23.99 22.451 24.3869C22.4351 23.7832 22.3161 23.1867 22.099 22.6231C21.5188 21.1958 21.8012 19.6854 21.3718 18.262C19.9329 20.0026 21.3525 22.4665 21.5497 24.3521C21.6561 25.3752 21.6387 26.4795 21.2306 27.4465C20.9251 27.0868 20.4203 26.6633 20.2984 26.4235C20.1078 26.0161 19.9456 25.5961 19.813 25.1663C19.7144 24.8724 19.6196 24.2438 19.4069 24.0775C18.8654 24.5243 19.5558 25.9303 19.8169 26.3983C20.2308 27.1429 20.5035 27.7231 20.5905 28.4832C20.1573 29.0247 19.6448 29.5063 19.256 30.0884C18.8131 30.7498 18.6429 32.0224 18.0956 32.5291C17.6508 32.9352 13.8176 33.0784 13.2606 32.9739C12.5422 32.8401 11.8813 32.4914 11.3653 31.974C10.669 31.2952 10.7445 30.5932 10.379 29.748C9.79875 31.7478 11.052 33.6295 12.8932 34.349C12.3845 35.2676 10.6961 35.316 9.79875 35.6912C8.51264 36.2288 7.49729 37.1862 6.01391 36.6717C5.04691 36.3391 4.6601 35.4765 4.24429 34.6062C3.9716 34.026 3.80141 32.9817 3.08389 32.8463C3.63122 33.9293 3.84589 34.9737 4.21335 36.1186C4.93667 38.3737 7.86281 38.7837 9.91672 38.4529C10.5724 38.3485 11.1177 38.0294 11.6805 37.7045C12.5835 37.1962 13.5289 36.7671 14.5061 36.4222C13.7944 38.0236 12.9589 39.71 11.1738 40.3657C11.8411 40.9884 13.4366 39.2884 13.9453 38.9442C13.9743 41.3559 10.3635 42.5994 10.6574 44.9841C10.9263 44.2356 11.0694 43.5548 11.7173 43.0133C12.3323 42.4989 13.0363 42.1082 13.6165 41.5338C15.1405 40.0427 15.0805 37.3796 17.0106 36.3333Z" fill="#003366"/>
<path d="M37.3711 74.9573C37.4302 74.9612 37.4895 74.9519 37.5447 74.9302C37.5998 74.9085 37.6495 74.8748 37.6902 74.8316C38.1292 74.4158 37.6283 73.5184 37.3034 72.9247C37.2299 72.7932 37.1622 72.6733 37.11 72.5746C37.0577 72.476 37.0365 72.4006 36.9959 72.2903C36.9011 72.037 36.7425 71.6134 36.5568 71.5651C36.5117 71.562 36.4663 71.5682 36.4237 71.5836C36.3811 71.5989 36.3421 71.6229 36.3093 71.654C35.9418 72.3735 35.8006 73.3946 36.3093 74.0677C36.7232 74.6382 37.0887 74.9322 37.3711 74.9573Z" fill="#003366"/>
<path d="M32.7457 28.0479C32.6813 28.0137 32.6089 27.9974 32.5361 28.0008C32.4633 28.0042 32.3927 28.0271 32.3318 28.0672C31.7323 28.3747 31.4615 29.5196 31.4306 30.1675C31.359 31.7321 32.3221 32.9486 33.4323 34.08C32.5774 32.3201 32.5329 30.2584 33.0339 28.3554C32.9654 28.2301 32.8662 28.1243 32.7457 28.0479Z" fill="#003366"/>
<path d="M32.7477 23.1355C33.1291 22.5076 33.3218 21.7832 33.3027 21.0487C33.2447 20.0817 32.5601 19.3565 31.9006 18.6525L31.7884 18.5326C32.0692 19.2089 32.2641 19.9178 32.3686 20.6426C32.562 21.9268 32.2642 23.1181 31.7516 24.2476C32.1531 23.9455 32.4915 23.5677 32.7477 23.1355Z" fill="#003366"/>
<path d="M20.8636 79.8175C21.4436 79.5821 22.0512 79.4216 22.6718 79.3398C23.1222 79.1742 23.5923 79.0682 24.0701 79.0245C24.6638 79.015 25.2564 79.0799 25.8339 79.2179C26.5534 79.3572 27.2322 79.4887 27.9014 79.3224C28.9574 79.0613 29.8141 78.4617 30.6419 77.8815C31.7578 77.1079 32.9143 76.2918 34.564 76.2899H34.5737C35.7689 76.2899 36.6527 76.5664 37.7222 77.2723C38.3992 77.7191 39.076 78.2142 39.722 78.6919C40.2229 79.0613 40.7277 79.4307 41.2421 79.7846C41.6097 79.6658 41.9843 79.5703 42.3639 79.4984C42.9229 79.4047 43.4895 79.3639 44.0561 79.3765L43.7312 79.1831C43.3753 78.9801 43.0079 78.7692 42.6598 78.5391C42.3116 78.309 41.948 78.0653 41.9887 77.7655C42.0235 77.5218 42.2865 77.4096 42.4799 77.3458C43.5939 76.9861 44.9535 77.1524 46.6361 77.8409C46.814 77.9144 46.9881 77.9918 47.1602 78.0711C47.3746 77.9881 47.6015 77.9416 47.8313 77.9338C47.9647 77.9202 48.104 77.9048 48.2181 77.8854C48.5269 77.8115 48.8271 77.7052 49.1135 77.5682L49.3862 77.4503C49.6492 77.342 49.9123 77.2201 50.1598 77.1021C50.8232 76.7946 51.5136 76.4755 52.2775 76.3692C53.1294 76.2584 53.9955 76.3697 54.7918 76.6921C55.3507 76.9223 55.8342 77.398 56.3022 77.8525C56.5388 78.0945 56.7886 78.3231 57.0507 78.5372C57.404 78.8133 57.7844 79.0531 58.1859 79.2527C59.3463 79.0593 60.4062 78.8137 61.6807 79.2527C60.6827 78.3012 59.6345 78.4656 58.2633 78.2857C56.7064 78.073 56.279 76.9532 55.1689 75.9649C53.3741 74.3675 51.8811 75.9649 49.7711 75.9649C47.5837 75.9649 46.139 77.2859 44.9361 74.8548C44.793 74.5667 44.6518 74.2843 44.5125 74.0019C44.2437 73.9188 43.9923 73.8375 43.7853 73.7621C42.6978 73.3623 41.6596 72.8393 40.6909 72.2033C37.1034 69.8322 33.6879 65.5078 34.1443 61.1892C34.1637 60.9958 34.1869 60.7927 34.2101 60.5896C34.39 58.9805 34.5969 57.1568 34.1115 55.7546C33.7506 54.7025 33.0988 53.7744 32.2316 53.078C32.3228 53.5576 32.3732 54.0442 32.3825 54.5323C32.9627 55.3388 33.5874 56.447 33.7266 57.6074C33.7769 58.0135 33.9877 60.0771 33.2934 60.6592L33.1561 60.7734L33.0304 60.6457C32.7596 60.3653 32.6223 59.9011 32.4888 59.4524C32.4277 59.2201 32.3495 58.9925 32.2548 58.7717C32.1601 58.5667 32.0614 58.3636 31.9589 58.1605C31.8835 58.4255 31.7945 58.6846 31.6998 58.9341C31.6209 59.61 31.6047 60.2917 31.6514 60.9706C31.7829 62.4559 32.2316 63.156 33.1348 64.2971C34.038 65.4382 34.3416 66.527 34.564 68.0375C34.7864 69.5479 34.8928 71.2847 34.0128 72.7178C33.7614 73.1278 33.0652 74.0716 32.0382 74.089H32.0208C31.4541 74.089 31.1466 73.7892 30.8739 73.5242C30.8159 73.4662 30.7598 73.4121 30.7018 73.3618L30.6863 73.3927C28.9767 73.3927 26.9247 72.5127 25.714 72.0389C23.1051 71.0332 21.1788 73.3811 19.8134 75.3983C19.1722 76.3941 18.3764 77.2813 17.4558 78.0266C18.0622 77.9869 18.6564 77.8381 19.21 77.5876C19.7497 77.3198 20.2506 76.9802 20.6992 76.578C21.202 75.8915 21.6797 75.1971 22.3353 74.6189C23.6891 73.4295 25.5168 74.2804 26.7391 75.7522C26.4101 75.5847 26.0671 75.4462 25.714 75.3383C24.9926 75.1604 24.6271 75.3383 23.9289 75.5085C22.6196 75.8102 21.5656 76.5896 20.4671 77.2491C19.4821 78.0385 18.2475 78.45 16.9859 78.4095C16.8524 78.4095 16.7171 78.4095 16.5817 78.396C15.0925 78.4753 14.1355 78.365 13.9421 79.8175C15.5821 78.9182 16.1117 79.8117 17.7982 79.6299C19.3937 79.4558 20.676 78.5004 22.345 78.4695C21.7416 78.7557 21.1092 79.2102 20.8636 79.8175ZM35.9855 71.4374L36.0029 71.4046L36.0339 71.3794C36.1137 71.2984 36.2123 71.2383 36.321 71.2046C36.4296 71.1708 36.5449 71.1645 36.6566 71.186C37.0434 71.2885 37.2136 71.7662 37.3567 72.153C37.3935 72.2497 37.4283 72.3464 37.4573 72.4025C37.5037 72.4973 37.5656 72.6094 37.6372 72.7352C38.024 73.4314 38.6158 74.4874 37.9582 75.1101C37.8868 75.183 37.8017 75.241 37.7077 75.2808C37.6138 75.3207 37.5129 75.3415 37.4109 75.3422H37.3432C36.8075 75.2977 36.322 74.7252 36.001 74.2998C35.3686 73.4778 35.5407 72.2671 35.9797 71.4374H35.9855Z" fill="#003366"/>
</g>
<defs>
<clipPath id="clip0_12752_9003">
<rect width="76.3235" height="80" fill="white" transform="translate(0 0.747559)"/>
</clipPath>
</defs>
</svg>
